<svg width="101" height="100" viewBox="0 0 101 100" fill="none" xmlns="http://www.w3.org/2000/svg">
<g id="First Step=Step 1">
<g id="Ellipse 3">
<mask id="path-1-inside-1_2475_1470" fill="white">
<path d="M50.5 0C57.0661 7.82999e-08 63.5679 1.29329 69.6342 3.80602C75.7005 6.31876 81.2124 10.0017 85.8553 14.6447C90.4983 19.2876 94.1812 24.7996 96.694 30.8658C99.2067 36.9321 100.5 43.4339 100.5 50H99.7162C99.7162 43.5368 98.4432 37.137 95.9698 31.1658C93.4965 25.1946 89.8713 19.769 85.3011 15.1989C80.731 10.6287 75.3054 7.00351 69.3342 4.53016C63.363 2.05682 56.9632 0.783802 50.5 0.783802V0Z"/>
</mask>
<path d="M50.5 0C57.0661 7.82999e-08 63.5679 1.29329 69.6342 3.80602C75.7005 6.31876 81.2124 10.0017 85.8553 14.6447C90.4983 19.2876 94.1812 24.7996 96.694 30.8658C99.2067 36.9321 100.5 43.4339 100.5 50H99.7162C99.7162 43.5368 98.4432 37.137 95.9698 31.1658C93.4965 25.1946 89.8713 19.769 85.3011 15.1989C80.731 10.6287 75.3054 7.00351 69.3342 4.53016C63.363 2.05682 56.9632 0.783802 50.5 0.783802V0Z" stroke="#FFF8F8" stroke-width="2" mask="url(#path-1-inside-1_2475_1470)"/>
</g>
<g id="Ellipse 2">
<circle cx="50.5" cy="50" r="41" fill="#FFA500"/>
<circle cx="50.5" cy="50" r="40.5" stroke="#A39191" stroke-opacity="0.23"/>
</g>
<path id="Arrow 1" d="M62.2071 50.7071C62.5976 50.3166 62.5976 49.6834 62.2071 49.2929L55.8431 42.9289C55.4526 42.5384 54.8195 42.5384 54.4289 42.9289C54.0384 43.3195 54.0384 43.9526 54.4289 44.3431L60.0858 50L54.4289 55.6569C54.0384 56.0474 54.0384 56.6805 54.4289 57.0711C54.8195 57.4616 55.4526 57.4616 55.8431 57.0711L62.2071 50.7071ZM39.5 51L61.5 51L61.5 49L39.5 49L39.5 51Z" fill="white"/>
</g>
<svg viewBox="0 0 800 800" xmlns="http://www.w3.org/2000/svg">
  <circle cx="400" cy="400" fill="none"
    r="400" stroke-width="9" stroke="#E387FF"
    stroke-dasharray="150 1400"
    stroke-linecap="round"
    stroke-dashoffset="0" />
</svg>
</svg>
