<svg width="100" height="100" viewBox="0 0 100 100" fill="none" xmlns="http://www.w3.org/2000/svg">
<mask id="path-1-inside-1_2491_1617" fill="white">
<path d="M100 50C100 77.6142 77.6142 100 50 100C22.3858 100 0 77.6142 0 50C0 22.3858 22.3858 0 50 0C77.6142 0 100 22.3858 100 50ZM0.783802 50C0.783802 77.1814 22.8186 99.2162 50 99.2162C77.1814 99.2162 99.2162 77.1814 99.2162 50C99.2162 22.8186 77.1814 0.783802 50 0.783802C22.8186 0.783802 0.783802 22.8186 0.783802 50Z"/>
</mask>
<path d="M100 50C100 77.6142 77.6142 100 50 100C22.3858 100 0 77.6142 0 50C0 22.3858 22.3858 0 50 0C77.6142 0 100 22.3858 100 50ZM0.783802 50C0.783802 77.1814 22.8186 99.2162 50 99.2162C77.1814 99.2162 99.2162 77.1814 99.2162 50C99.2162 22.8186 77.1814 0.783802 50 0.783802C22.8186 0.783802 0.783802 22.8186 0.783802 50Z" stroke="#FFF8F8" stroke-width="2" mask="url(#path-1-inside-1_2491_1617)"/>
<ellipse cx="49.7511" cy="50" rx="40.796" ry="41" fill="#FFA500"/>
<path d="M90.0471 50C90.0471 72.3699 72.0036 90.5 49.7511 90.5C27.4986 90.5 9.45508 72.3699 9.45508 50C9.45508 27.6301 27.4986 9.5 49.7511 9.5C72.0036 9.5 90.0471 27.6301 90.0471 50Z" stroke="#A39191" stroke-opacity="0.23"/>
<path d="M21.4766 53.1406V57H18.9531V45.7969H22.9062C25.7292 45.7969 27.1406 46.987 27.1406 49.3672C27.1406 50.4922 26.7344 51.4036 25.9219 52.1016C25.1146 52.7943 24.0339 53.1406 22.6797 53.1406H21.4766ZM21.4766 47.7344V51.2266H22.4688C23.8125 51.2266 24.4844 50.638 24.4844 49.4609C24.4844 48.3099 23.8125 47.7344 22.4688 47.7344H21.4766ZM34.7891 57H32.4531V55.8516H32.4219C31.8854 56.7474 31.0911 57.1953 30.0391 57.1953C29.263 57.1953 28.651 56.9766 28.2031 56.5391C27.7604 56.0964 27.5391 55.5078 27.5391 54.7734C27.5391 53.2214 28.4583 52.3255 30.2969 52.0859L32.4688 51.7969C32.4688 50.9219 31.9948 50.4844 31.0469 50.4844C30.0938 50.4844 29.1875 50.7682 28.3281 51.3359V49.4766C28.6719 49.2995 29.1406 49.1432 29.7344 49.0078C30.3333 48.8724 30.8776 48.8047 31.3672 48.8047C33.6484 48.8047 34.7891 49.9427 34.7891 52.2188V57ZM32.4688 53.75V53.2109L31.0156 53.3984C30.2135 53.5026 29.8125 53.8646 29.8125 54.4844C29.8125 54.7656 29.9089 54.9974 30.1016 55.1797C30.2995 55.3568 30.5651 55.4453 30.8984 55.4453C31.362 55.4453 31.7396 55.2865 32.0312 54.9688C32.3229 54.6458 32.4688 54.2396 32.4688 53.75ZM41.9609 51.2266C41.6641 51.0651 41.3177 50.9844 40.9219 50.9844C40.3854 50.9844 39.9661 51.1823 39.6641 51.5781C39.362 51.9688 39.2109 52.5026 39.2109 53.1797V57H36.7422V49H39.2109V50.4844H39.2422C39.6328 49.401 40.3359 48.8594 41.3516 48.8594C41.612 48.8594 41.8151 48.8906 41.9609 48.9531V51.2266ZM48.4219 56.9062C48.0573 57.099 47.5078 57.1953 46.7734 57.1953C45.0339 57.1953 44.1641 56.2917 44.1641 54.4844V50.8203H42.8672V49H44.1641V47.2734L46.625 46.5703V49H48.4219V50.8203H46.625V54.0547C46.625 54.888 46.9557 55.3047 47.6172 55.3047C47.8776 55.3047 48.1458 55.2292 48.4219 55.0781V56.9062ZM56.4766 57H54.1406V55.8516H54.1094C53.5729 56.7474 52.7786 57.1953 51.7266 57.1953C50.9505 57.1953 50.3385 56.9766 49.8906 56.5391C49.4479 56.0964 49.2266 55.5078 49.2266 54.7734C49.2266 53.2214 50.1458 52.3255 51.9844 52.0859L54.1562 51.7969C54.1562 50.9219 53.6823 50.4844 52.7344 50.4844C51.7812 50.4844 50.875 50.7682 50.0156 51.3359V49.4766C50.3594 49.2995 50.8281 49.1432 51.4219 49.0078C52.0208 48.8724 52.5651 48.8047 53.0547 48.8047C55.3359 48.8047 56.4766 49.9427 56.4766 52.2188V57ZM54.1562 53.75V53.2109L52.7031 53.3984C51.901 53.5026 51.5 53.8646 51.5 54.4844C51.5 54.7656 51.5964 54.9974 51.7891 55.1797C51.987 55.3568 52.2526 55.4453 52.5859 55.4453C53.0495 55.4453 53.4271 55.2865 53.7188 54.9688C54.0104 54.6458 54.1562 54.2396 54.1562 53.75ZM66.2734 56.0859C66.2734 57.5703 65.8438 58.7188 64.9844 59.5312C64.125 60.349 62.8802 60.7578 61.25 60.7578C60.1719 60.7578 59.3177 60.6042 58.6875 60.2969V58.2188C59.5104 58.6979 60.3411 58.9375 61.1797 58.9375C62.013 58.9375 62.6589 58.7161 63.1172 58.2734C63.5755 57.8359 63.8047 57.2396 63.8047 56.4844V55.8516H63.7734C63.2109 56.7474 62.3802 57.1953 61.2812 57.1953C60.2604 57.1953 59.4505 56.8359 58.8516 56.1172C58.2526 55.3984 57.9531 54.4349 57.9531 53.2266C57.9531 51.8724 58.2865 50.7969 58.9531 50C59.6198 49.2031 60.4974 48.8047 61.5859 48.8047C62.5599 48.8047 63.2891 49.1797 63.7734 49.9297H63.8047V49H66.2734V56.0859ZM63.8359 53.1562V52.5234C63.8359 52.0182 63.6849 51.5885 63.3828 51.2344C63.0859 50.875 62.6979 50.6953 62.2188 50.6953C61.6719 50.6953 61.2422 50.9089 60.9297 51.3359C60.6172 51.763 60.4609 52.3646 60.4609 53.1406C60.4609 53.8073 60.6094 54.3359 60.9062 54.7266C61.2031 55.112 61.6094 55.3047 62.125 55.3047C62.6354 55.3047 63.0469 55.1094 63.3594 54.7188C63.6771 54.3229 63.8359 53.8021 63.8359 53.1562ZM75.5234 53.7031H70.3047C70.388 54.8646 71.1198 55.4453 72.5 55.4453C73.3802 55.4453 74.1536 55.237 74.8203 54.8203V56.6016C74.0807 56.9974 73.1198 57.1953 71.9375 57.1953C70.6458 57.1953 69.6432 56.8385 68.9297 56.125C68.2161 55.4062 67.8594 54.4062 67.8594 53.125C67.8594 51.7969 68.2448 50.7448 69.0156 49.9688C69.7865 49.1927 70.7344 48.8047 71.8594 48.8047C73.026 48.8047 73.9271 49.151 74.5625 49.8438C75.2031 50.5365 75.5234 51.4766 75.5234 52.6641V53.7031ZM73.2344 52.1875C73.2344 51.0417 72.7708 50.4688 71.8438 50.4688C71.4479 50.4688 71.1042 50.6328 70.8125 50.9609C70.526 51.2891 70.3516 51.6979 70.2891 52.1875H73.2344ZM82.2109 51.2266C81.9141 51.0651 81.5677 50.9844 81.1719 50.9844C80.6354 50.9844 80.2161 51.1823 79.9141 51.5781C79.612 51.9688 79.4609 52.5026 79.4609 53.1797V57H76.9922V49H79.4609V50.4844H79.4922C79.8828 49.401 80.5859 48.8594 81.6016 48.8594C81.862 48.8594 82.0651 48.8906 82.2109 48.9531V51.2266Z" fill="white"/>
</svg>
