<?xml version="1.0" encoding="UTF-8"?>
<svg version="1.1" xmlns="http://www.w3.org/2000/svg" width="356" height="400">
<path d="M0 0 C1.07461739 0.00539291 1.07461739 0.00539291 2.17094421 0.01089478 C2.92211517 0.01074875 3.67328613 0.01060272 4.44721985 0.01045227 C6.94166404 0.01115153 9.43603448 0.01894452 11.9304657 0.02676392 C13.65539509 0.02862805 15.38032501 0.03005197 17.10525513 0.03105164 C21.65418448 0.03487719 26.20308211 0.04470779 30.7519989 0.05575562 C35.39025951 0.06596893 40.02852522 0.07054908 44.66679382 0.07559204 C53.77422967 0.08633003 62.88164192 0.1034069 71.98905945 0.12442017 C71.98905945 0.78442017 71.98905945 1.44442017 71.98905945 2.12442017 C72.69030945 2.08961548 73.39155945 2.05481079 74.11405945 2.01895142 C80.52761194 1.83595603 85.16893648 2.52501884 90.98905945 5.12442017 C92.98546584 5.80177233 94.98410359 6.47280951 96.98905945 7.12442017 C96.98905945 7.78442017 96.98905945 8.44442017 96.98905945 9.12442017 C99.62905945 9.12442017 102.26905945 9.12442017 104.98905945 9.12442017 C105.31905945 10.11442017 105.64905945 11.10442017 105.98905945 12.12442017 C107.96905945 12.12442017 109.94905945 12.12442017 111.98905945 12.12442017 C111.98905945 13.11442017 111.98905945 14.10442017 111.98905945 15.12442017 C114.29905945 15.12442017 116.60905945 15.12442017 118.98905945 15.12442017 C118.98905945 16.11442017 118.98905945 17.10442017 118.98905945 18.12442017 C120.96905945 18.12442017 122.94905945 18.12442017 124.98905945 18.12442017 C124.98905945 19.11442017 124.98905945 20.10442017 124.98905945 21.12442017 C126.96905945 21.12442017 128.94905945 21.12442017 130.98905945 21.12442017 C130.98905945 22.11442017 130.98905945 23.10442017 130.98905945 24.12442017 C132.96905945 24.12442017 134.94905945 24.12442017 136.98905945 24.12442017 C136.98905945 25.11442017 136.98905945 26.10442017 136.98905945 27.12442017 C137.71093445 27.22754517 138.43280945 27.33067017 139.17655945 27.43692017 C142.28959437 28.19788426 144.41911943 29.21532187 146.98905945 31.12442017 C146.98905945 32.11442017 146.98905945 33.10442017 146.98905945 34.12442017 C147.97905945 34.12442017 148.96905945 34.12442017 149.98905945 34.12442017 C149.98905945 35.11442017 149.98905945 36.10442017 149.98905945 37.12442017 C151.96905945 37.12442017 153.94905945 37.12442017 155.98905945 37.12442017 C155.98905945 38.11442017 155.98905945 39.10442017 155.98905945 40.12442017 C156.97905945 40.12442017 157.96905945 40.12442017 158.98905945 40.12442017 C158.98905945 41.11442017 158.98905945 42.10442017 158.98905945 43.12442017 C159.97905945 43.12442017 160.96905945 43.12442017 161.98905945 43.12442017 C161.98905945 44.11442017 161.98905945 45.10442017 161.98905945 46.12442017 C164.29905945 46.12442017 166.60905945 46.12442017 168.98905945 46.12442017 C169.31905945 45.13442017 169.64905945 44.14442017 169.98905945 43.12442017 C172.29905945 43.12442017 174.60905945 43.12442017 176.98905945 43.12442017 C177.31905945 44.11442017 177.64905945 45.10442017 177.98905945 46.12442017 C178.97905945 46.45442017 179.96905945 46.78442017 180.98905945 47.12442017 C180.98905945 47.78442017 180.98905945 48.44442017 180.98905945 49.12442017 C181.64905945 49.12442017 182.30905945 49.12442017 182.98905945 49.12442017 C182.98905945 53.08442017 182.98905945 57.04442017 182.98905945 61.12442017 C181.66905945 61.78442017 180.34905945 62.44442017 178.98905945 63.12442017 C178.65905945 63.78442017 178.32905945 64.44442017 177.98905945 65.12442017 C176.99905945 65.12442017 176.00905945 65.12442017 174.98905945 65.12442017 C174.98905945 66.11442017 174.98905945 67.10442017 174.98905945 68.12442017 C173.99905945 68.12442017 173.00905945 68.12442017 171.98905945 68.12442017 C171.98905945 69.11442017 171.98905945 70.10442017 171.98905945 71.12442017 C170.99905945 71.12442017 170.00905945 71.12442017 168.98905945 71.12442017 C168.98905945 72.11442017 168.98905945 73.10442017 168.98905945 74.12442017 C167.99905945 74.12442017 167.00905945 74.12442017 165.98905945 74.12442017 C165.98905945 75.11442017 165.98905945 76.10442017 165.98905945 77.12442017 C164.66905945 77.12442017 163.34905945 77.12442017 161.98905945 77.12442017 C161.98905945 78.11442017 161.98905945 79.10442017 161.98905945 80.12442017 C160.99905945 80.12442017 160.00905945 80.12442017 158.98905945 80.12442017 C158.65905945 81.44442017 158.32905945 82.76442017 157.98905945 84.12442017 C157.32905945 84.12442017 156.66905945 84.12442017 155.98905945 84.12442017 C155.98905945 85.11442017 155.98905945 86.10442017 155.98905945 87.12442017 C154.99905945 87.12442017 154.00905945 87.12442017 152.98905945 87.12442017 C152.98905945 88.11442017 152.98905945 89.10442017 152.98905945 90.12442017 C151.99905945 90.12442017 151.00905945 90.12442017 149.98905945 90.12442017 C149.98905945 91.11442017 149.98905945 92.10442017 149.98905945 93.12442017 C148.99905945 93.12442017 148.00905945 93.12442017 146.98905945 93.12442017 C146.98905945 94.11442017 146.98905945 95.10442017 146.98905945 96.12442017 C145.99905945 96.12442017 145.00905945 96.12442017 143.98905945 96.12442017 C143.98905945 97.11442017 143.98905945 98.10442017 143.98905945 99.12442017 C142.99905945 99.12442017 142.00905945 99.12442017 140.98905945 99.12442017 C140.98905945 100.11442017 140.98905945 101.10442017 140.98905945 102.12442017 C139.66905945 102.12442017 138.34905945 102.12442017 136.98905945 102.12442017 C136.98905945 103.11442017 136.98905945 104.10442017 136.98905945 105.12442017 C135.99905945 105.12442017 135.00905945 105.12442017 133.98905945 105.12442017 C133.65905945 106.44442017 133.32905945 107.76442017 132.98905945 109.12442017 C132.32905945 109.12442017 131.66905945 109.12442017 130.98905945 109.12442017 C130.98905945 110.11442017 130.98905945 111.10442017 130.98905945 112.12442017 C129.99905945 112.12442017 129.00905945 112.12442017 127.98905945 112.12442017 C127.98905945 113.11442017 127.98905945 114.10442017 127.98905945 115.12442017 C126.99905945 115.12442017 126.00905945 115.12442017 124.98905945 115.12442017 C124.98905945 116.11442017 124.98905945 117.10442017 124.98905945 118.12442017 C123.99905945 118.12442017 123.00905945 118.12442017 121.98905945 118.12442017 C121.98905945 119.11442017 121.98905945 120.10442017 121.98905945 121.12442017 C120.99905945 121.12442017 120.00905945 121.12442017 118.98905945 121.12442017 C118.98905945 122.11442017 118.98905945 123.10442017 118.98905945 124.12442017 C117.99905945 124.12442017 117.00905945 124.12442017 115.98905945 124.12442017 C115.65905945 125.11442017 115.32905945 126.10442017 114.98905945 127.12442017 C113.99905945 127.12442017 113.00905945 127.12442017 111.98905945 127.12442017 C111.98905945 128.11442017 111.98905945 129.10442017 111.98905945 130.12442017 C110.99905945 130.12442017 110.00905945 130.12442017 108.98905945 130.12442017 C108.98905945 131.11442017 108.98905945 132.10442017 108.98905945 133.12442017 C107.11405945 135.31192017 107.11405945 135.31192017 104.98905945 137.12442017 C104.32905945 137.12442017 103.66905945 137.12442017 102.98905945 137.12442017 C102.65905945 138.11442017 102.32905945 139.10442017 101.98905945 140.12442017 C101.32905945 140.12442017 100.66905945 140.12442017 99.98905945 140.12442017 C99.98905945 141.11442017 99.98905945 142.10442017 99.98905945 143.12442017 C98.99905945 143.12442017 98.00905945 143.12442017 96.98905945 143.12442017 C96.65905945 144.11442017 96.32905945 145.10442017 95.98905945 146.12442017 C95.32905945 146.12442017 94.66905945 146.12442017 93.98905945 146.12442017 C93.65905945 147.11442017 93.32905945 148.10442017 92.98905945 149.12442017 C91.61405945 150.81192017 91.61405945 150.81192017 89.98905945 152.12442017 C88.99905945 152.12442017 88.00905945 152.12442017 86.98905945 152.12442017 C86.98905945 153.11442017 86.98905945 154.10442017 86.98905945 155.12442017 C83.02905945 155.12442017 79.06905945 155.12442017 74.98905945 155.12442017 C74.98905945 154.13442017 74.98905945 153.14442017 74.98905945 152.12442017 C73.99905945 152.12442017 73.00905945 152.12442017 71.98905945 152.12442017 C71.98905945 151.13442017 71.98905945 150.14442017 71.98905945 149.12442017 C70.99905945 149.12442017 70.00905945 149.12442017 68.98905945 149.12442017 C68.6960907 143.06973267 68.6960907 143.06973267 68.98905945 141.12442017 C69.97905945 140.46442017 70.96905945 139.80442017 71.98905945 139.12442017 C71.98905945 138.46442017 71.98905945 137.80442017 71.98905945 137.12442017 C70.99905945 136.79442017 70.00905945 136.46442017 68.98905945 136.12442017 C68.98905945 135.46442017 68.98905945 134.80442017 68.98905945 134.12442017 C67.00905945 133.79442017 65.02905945 133.46442017 62.98905945 133.12442017 C62.98905945 132.13442017 62.98905945 131.14442017 62.98905945 130.12442017 C61.00905945 130.12442017 59.02905945 130.12442017 56.98905945 130.12442017 C56.65905945 129.13442017 56.32905945 128.14442017 55.98905945 127.12442017 C52.02905945 127.12442017 48.06905945 127.12442017 43.98905945 127.12442017 C43.98905945 126.13442017 43.98905945 125.14442017 43.98905945 124.12442017 C40.86331985 124.23404833 37.73881164 124.36473257 34.61405945 124.49942017 C33.72460632 124.53035767 32.8351532 124.56129517 31.91874695 124.59317017 C31.0679657 124.63184204 30.21718445 124.67051392 29.34062195 124.71035767 C28.55509949 124.74177856 27.76957703 124.77319946 26.96025085 124.80557251 C24.75903006 124.96436667 24.75903006 124.96436667 22.98905945 127.12442017 C20.38749695 127.31973267 20.38749695 127.31973267 17.36405945 127.24942017 C16.36116882 127.23137329 15.3582782 127.21332642 14.32499695 127.19473267 C13.55413757 127.17152954 12.7832782 127.14832642 11.98905945 127.12442017 C11.98905945 128.11442017 11.98905945 129.10442017 11.98905945 130.12442017 C9.67905945 130.12442017 7.36905945 130.12442017 4.98905945 130.12442017 C4.98905945 130.78442017 4.98905945 131.44442017 4.98905945 132.12442017 C2.51405945 133.11442017 2.51405945 133.11442017 -0.01094055 134.12442017 C-0.01094055 134.78442017 -0.01094055 135.44442017 -0.01094055 136.12442017 C-1.99094055 136.45442017 -3.97094055 136.78442017 -6.01094055 137.12442017 C-6.34094055 138.11442017 -6.67094055 139.10442017 -7.01094055 140.12442017 C-7.67094055 140.12442017 -8.33094055 140.12442017 -9.01094055 140.12442017 C-9.34094055 141.11442017 -9.67094055 142.10442017 -10.01094055 143.12442017 C-11.38594055 144.81192017 -11.38594055 144.81192017 -13.01094055 146.12442017 C-14.00094055 146.12442017 -14.99094055 146.12442017 -16.01094055 146.12442017 C-16.01094055 147.11442017 -16.01094055 148.10442017 -16.01094055 149.12442017 C-17.00094055 149.12442017 -17.99094055 149.12442017 -19.01094055 149.12442017 C-19.01094055 150.11442017 -19.01094055 151.10442017 -19.01094055 152.12442017 C-20.00094055 152.12442017 -20.99094055 152.12442017 -22.01094055 152.12442017 C-22.01094055 154.10442017 -22.01094055 156.08442017 -22.01094055 158.12442017 C-23.00094055 158.12442017 -23.99094055 158.12442017 -25.01094055 158.12442017 C-25.01094055 160.10442017 -25.01094055 162.08442017 -25.01094055 164.12442017 C-26.00094055 164.45442017 -26.99094055 164.78442017 -28.01094055 165.12442017 C-28.01094055 167.76442017 -28.01094055 170.40442017 -28.01094055 173.12442017 C-29.00094055 173.45442017 -29.99094055 173.78442017 -31.01094055 174.12442017 C-31.01094055 183.69442017 -31.01094055 193.26442017 -31.01094055 203.12442017 C-30.02094055 203.45442017 -29.03094055 203.78442017 -28.01094055 204.12442017 C-28.01094055 206.76442017 -28.01094055 209.40442017 -28.01094055 212.12442017 C-27.02094055 212.12442017 -26.03094055 212.12442017 -25.01094055 212.12442017 C-25.01094055 214.10442017 -25.01094055 216.08442017 -25.01094055 218.12442017 C-24.02094055 218.12442017 -23.03094055 218.12442017 -22.01094055 218.12442017 C-22.01094055 220.10442017 -22.01094055 222.08442017 -22.01094055 224.12442017 C-21.02094055 224.12442017 -20.03094055 224.12442017 -19.01094055 224.12442017 C-19.01094055 225.11442017 -19.01094055 226.10442017 -19.01094055 227.12442017 C-18.02094055 227.45442017 -17.03094055 227.78442017 -16.01094055 228.12442017 C-16.01094055 229.11442017 -16.01094055 230.10442017 -16.01094055 231.12442017 C-15.02094055 231.12442017 -14.03094055 231.12442017 -13.01094055 231.12442017 C-13.01094055 232.11442017 -13.01094055 233.10442017 -13.01094055 234.12442017 C-11.69094055 234.45442017 -10.37094055 234.78442017 -9.01094055 235.12442017 C-9.01094055 235.78442017 -9.01094055 236.44442017 -9.01094055 237.12442017 C-8.02094055 237.12442017 -7.03094055 237.12442017 -6.01094055 237.12442017 C-6.01094055 238.11442017 -6.01094055 239.10442017 -6.01094055 240.12442017 C-5.02094055 240.12442017 -4.03094055 240.12442017 -3.01094055 240.12442017 C-3.01094055 241.11442017 -3.01094055 242.10442017 -3.01094055 243.12442017 C-1.03094055 243.12442017 0.94905945 243.12442017 2.98905945 243.12442017 C2.98905945 244.11442017 2.98905945 245.10442017 2.98905945 246.12442017 C4.96905945 246.12442017 6.94905945 246.12442017 8.98905945 246.12442017 C8.98905945 247.11442017 8.98905945 248.10442017 8.98905945 249.12442017 C9.67612976 249.10121704 10.36320007 249.07801392 11.0710907 249.05410767 C11.97214539 249.03606079 12.87320007 249.01801392 13.80155945 248.99942017 C14.69487976 248.97621704 15.58820007 248.95301392 16.5085907 248.92910767 C18.98905945 249.12442017 18.98905945 249.12442017 21.98905945 251.12442017 C24.69981489 251.4924071 24.69981489 251.4924071 27.7507782 251.53848267 C29.42817078 251.59649048 29.42817078 251.59649048 31.13945007 251.65567017 C32.30669617 251.68660767 33.47394226 251.71754517 34.67655945 251.74942017 C36.44483093 251.80742798 36.44483093 251.80742798 38.24882507 251.86660767 C41.16207922 251.96096408 44.07532552 252.04655177 46.98905945 252.12442017 C47.31905945 251.13442017 47.64905945 250.14442017 47.98905945 249.12442017 C51.06523132 248.83145142 51.06523132 248.83145142 54.1414032 248.53848267 C54.75112976 248.40184204 55.36085632 248.26520142 55.98905945 248.12442017 C56.31905945 247.46442017 56.64905945 246.80442017 56.98905945 246.12442017 C58.96905945 246.12442017 60.94905945 246.12442017 62.98905945 246.12442017 C63.31905945 245.13442017 63.64905945 244.14442017 63.98905945 243.12442017 C65.63905945 243.12442017 67.28905945 243.12442017 68.98905945 243.12442017 C68.98905945 242.13442017 68.98905945 241.14442017 68.98905945 240.12442017 C70.30905945 239.79442017 71.62905945 239.46442017 72.98905945 239.12442017 C72.65905945 238.46442017 72.32905945 237.80442017 71.98905945 237.12442017 C70.99905945 236.79442017 70.00905945 236.46442017 68.98905945 236.12442017 C68.98905945 233.48442017 68.98905945 230.84442017 68.98905945 228.12442017 C69.97905945 228.12442017 70.96905945 228.12442017 71.98905945 228.12442017 C72.31905945 227.13442017 72.64905945 226.14442017 72.98905945 225.12442017 C73.64905945 225.12442017 74.30905945 225.12442017 74.98905945 225.12442017 C75.64905945 223.80442017 76.30905945 222.48442017 76.98905945 221.12442017 C79.95905945 221.12442017 82.92905945 221.12442017 85.98905945 221.12442017 C86.31905945 222.11442017 86.64905945 223.10442017 86.98905945 224.12442017 C87.97905945 224.45442017 88.96905945 224.78442017 89.98905945 225.12442017 C92.17655945 227.06192017 92.17655945 227.06192017 93.98905945 229.12442017 C93.98905945 229.78442017 93.98905945 230.44442017 93.98905945 231.12442017 C94.97905945 231.45442017 95.96905945 231.78442017 96.98905945 232.12442017 C96.98905945 232.78442017 96.98905945 233.44442017 96.98905945 234.12442017 C97.97905945 234.12442017 98.96905945 234.12442017 99.98905945 234.12442017 C99.98905945 235.11442017 99.98905945 236.10442017 99.98905945 237.12442017 C100.97905945 237.12442017 101.96905945 237.12442017 102.98905945 237.12442017 C102.98905945 238.11442017 102.98905945 239.10442017 102.98905945 240.12442017 C103.97905945 240.12442017 104.96905945 240.12442017 105.98905945 240.12442017 C105.98905945 241.11442017 105.98905945 242.10442017 105.98905945 243.12442017 C106.97905945 243.12442017 107.96905945 243.12442017 108.98905945 243.12442017 C108.98905945 244.11442017 108.98905945 245.10442017 108.98905945 246.12442017 C109.97905945 246.12442017 110.96905945 246.12442017 111.98905945 246.12442017 C111.98905945 247.11442017 111.98905945 248.10442017 111.98905945 249.12442017 C112.97905945 249.12442017 113.96905945 249.12442017 114.98905945 249.12442017 C117.17655945 250.93692017 117.17655945 250.93692017 118.98905945 253.12442017 C118.98905945 254.11442017 118.98905945 255.10442017 118.98905945 256.12442017 C119.97905945 256.12442017 120.96905945 256.12442017 121.98905945 256.12442017 C121.98905945 257.11442017 121.98905945 258.10442017 121.98905945 259.12442017 C122.97905945 259.12442017 123.96905945 259.12442017 124.98905945 259.12442017 C124.98905945 260.11442017 124.98905945 261.10442017 124.98905945 262.12442017 C125.97905945 262.12442017 126.96905945 262.12442017 127.98905945 262.12442017 C127.98905945 263.11442017 127.98905945 264.10442017 127.98905945 265.12442017 C128.97905945 265.12442017 129.96905945 265.12442017 130.98905945 265.12442017 C130.98905945 266.11442017 130.98905945 267.10442017 130.98905945 268.12442017 C131.97905945 268.12442017 132.96905945 268.12442017 133.98905945 268.12442017 C133.98905945 269.11442017 133.98905945 270.10442017 133.98905945 271.12442017 C134.97905945 271.12442017 135.96905945 271.12442017 136.98905945 271.12442017 C136.98905945 272.11442017 136.98905945 273.10442017 136.98905945 274.12442017 C138.30905945 274.45442017 139.62905945 274.78442017 140.98905945 275.12442017 C140.98905945 275.78442017 140.98905945 276.44442017 140.98905945 277.12442017 C141.97905945 277.45442017 142.96905945 277.78442017 143.98905945 278.12442017 C143.98905945 279.11442017 143.98905945 280.10442017 143.98905945 281.12442017 C144.97905945 281.12442017 145.96905945 281.12442017 146.98905945 281.12442017 C146.98905945 282.11442017 146.98905945 283.10442017 146.98905945 284.12442017 C147.97905945 284.12442017 148.96905945 284.12442017 149.98905945 284.12442017 C149.98905945 285.11442017 149.98905945 286.10442017 149.98905945 287.12442017 C150.97905945 287.12442017 151.96905945 287.12442017 152.98905945 287.12442017 C152.98905945 288.11442017 152.98905945 289.10442017 152.98905945 290.12442017 C153.97905945 290.12442017 154.96905945 290.12442017 155.98905945 290.12442017 C155.98905945 291.11442017 155.98905945 292.10442017 155.98905945 293.12442017 C156.97905945 293.12442017 157.96905945 293.12442017 158.98905945 293.12442017 C158.98905945 294.11442017 158.98905945 295.10442017 158.98905945 296.12442017 C159.97905945 296.12442017 160.96905945 296.12442017 161.98905945 296.12442017 C161.98905945 297.11442017 161.98905945 298.10442017 161.98905945 299.12442017 C163.30905945 299.45442017 164.62905945 299.78442017 165.98905945 300.12442017 C165.98905945 300.78442017 165.98905945 301.44442017 165.98905945 302.12442017 C166.97905945 302.45442017 167.96905945 302.78442017 168.98905945 303.12442017 C170.67655945 304.49942017 170.67655945 304.49942017 171.98905945 306.12442017 C171.98905945 307.11442017 171.98905945 308.10442017 171.98905945 309.12442017 C172.97905945 309.12442017 173.96905945 309.12442017 174.98905945 309.12442017 C174.98905945 310.11442017 174.98905945 311.10442017 174.98905945 312.12442017 C175.97905945 312.12442017 176.96905945 312.12442017 177.98905945 312.12442017 C177.98905945 313.11442017 177.98905945 314.10442017 177.98905945 315.12442017 C178.97905945 315.12442017 179.96905945 315.12442017 180.98905945 315.12442017 C180.98905945 316.11442017 180.98905945 317.10442017 180.98905945 318.12442017 C181.64905945 318.12442017 182.30905945 318.12442017 182.98905945 318.12442017 C182.98905945 321.09442017 182.98905945 324.06442017 182.98905945 327.12442017 C182.32905945 327.12442017 181.66905945 327.12442017 180.98905945 327.12442017 C180.98905945 328.11442017 180.98905945 329.10442017 180.98905945 330.12442017 C179.99905945 330.12442017 179.00905945 330.12442017 177.98905945 330.12442017 C177.98905945 331.11442017 177.98905945 332.10442017 177.98905945 333.12442017 C175.01905945 333.12442017 172.04905945 333.12442017 168.98905945 333.12442017 C168.98905945 332.13442017 168.98905945 331.14442017 168.98905945 330.12442017 C166.67905945 330.12442017 164.36905945 330.12442017 161.98905945 330.12442017 C161.65905945 331.44442017 161.32905945 332.76442017 160.98905945 334.12442017 C160.32905945 334.12442017 159.66905945 334.12442017 158.98905945 334.12442017 C158.98905945 335.11442017 158.98905945 336.10442017 158.98905945 337.12442017 C157.99905945 337.12442017 157.00905945 337.12442017 155.98905945 337.12442017 C155.98905945 338.11442017 155.98905945 339.10442017 155.98905945 340.12442017 C154.99905945 340.12442017 154.00905945 340.12442017 152.98905945 340.12442017 C152.98905945 340.78442017 152.98905945 341.44442017 152.98905945 342.12442017 C151.00905945 342.45442017 149.02905945 342.78442017 146.98905945 343.12442017 C146.98905945 344.11442017 146.98905945 345.10442017 146.98905945 346.12442017 C145.99905945 346.45442017 145.00905945 346.78442017 143.98905945 347.12442017 C143.65905945 347.78442017 143.32905945 348.44442017 142.98905945 349.12442017 C141.00905945 349.12442017 139.02905945 349.12442017 136.98905945 349.12442017 C136.98905945 350.11442017 136.98905945 351.10442017 136.98905945 352.12442017 C133.65602554 354.6241956 132.25602343 355.12442017 127.98905945 355.12442017 C127.65905945 356.11442017 127.32905945 357.10442017 126.98905945 358.12442017 C125.2820282 359.29238892 125.2820282 359.29238892 123.17655945 360.31192017 C122.48948914 360.65609985 121.80241882 361.00027954 121.0945282 361.35488892 C118.98905945 362.12442017 118.98905945 362.12442017 114.98905945 362.12442017 C114.98905945 362.78442017 114.98905945 363.44442017 114.98905945 364.12442017 C112.01905945 364.45442017 109.04905945 364.78442017 105.98905945 365.12442017 C105.98905945 366.11442017 105.98905945 367.10442017 105.98905945 368.12442017 C103.01905945 368.12442017 100.04905945 368.12442017 96.98905945 368.12442017 C96.98905945 369.11442017 96.98905945 370.10442017 96.98905945 371.12442017 C93.68905945 371.12442017 90.38905945 371.12442017 86.98905945 371.12442017 C86.98905945 372.11442017 86.98905945 373.10442017 86.98905945 374.12442017 C83.02905945 374.12442017 79.06905945 374.12442017 74.98905945 374.12442017 C74.98905945 374.78442017 74.98905945 375.44442017 74.98905945 376.12442017 C47.26905945 376.12442017 19.54905945 376.12442017 -9.01094055 376.12442017 C-9.01094055 375.46442017 -9.01094055 374.80442017 -9.01094055 374.12442017 C-12.97094055 374.12442017 -16.93094055 374.12442017 -21.01094055 374.12442017 C-21.01094055 373.13442017 -21.01094055 372.14442017 -21.01094055 371.12442017 C-23.98094055 371.12442017 -26.95094055 371.12442017 -30.01094055 371.12442017 C-30.50594055 369.63942017 -30.50594055 369.63942017 -31.01094055 368.12442017 C-33.65094055 368.12442017 -36.29094055 368.12442017 -39.01094055 368.12442017 C-39.50594055 366.63942017 -39.50594055 366.63942017 -40.01094055 365.12442017 C-41.99094055 365.12442017 -43.97094055 365.12442017 -46.01094055 365.12442017 C-46.50594055 363.63942017 -46.50594055 363.63942017 -47.01094055 362.12442017 C-48.66094055 362.12442017 -50.31094055 362.12442017 -52.01094055 362.12442017 C-52.50594055 360.63942017 -52.50594055 360.63942017 -53.01094055 359.12442017 C-54.99094055 358.79442017 -56.97094055 358.46442017 -59.01094055 358.12442017 C-59.01094055 357.13442017 -59.01094055 356.14442017 -59.01094055 355.12442017 C-60.99094055 355.12442017 -62.97094055 355.12442017 -65.01094055 355.12442017 C-65.01094055 354.13442017 -65.01094055 353.14442017 -65.01094055 352.12442017 C-66.99094055 352.12442017 -68.97094055 352.12442017 -71.01094055 352.12442017 C-71.50594055 350.63942017 -71.50594055 350.63942017 -72.01094055 349.12442017 C-73.00094055 349.12442017 -73.99094055 349.12442017 -75.01094055 349.12442017 C-75.01094055 348.13442017 -75.01094055 347.14442017 -75.01094055 346.12442017 C-76.66094055 346.12442017 -78.31094055 346.12442017 -80.01094055 346.12442017 C-80.50594055 344.63942017 -80.50594055 344.63942017 -81.01094055 343.12442017 C-82.00094055 343.12442017 -82.99094055 343.12442017 -84.01094055 343.12442017 C-84.01094055 342.13442017 -84.01094055 341.14442017 -84.01094055 340.12442017 C-84.73281555 340.06254517 -85.45469055 340.00067017 -86.19844055 339.93692017 C-89.85963757 338.87924103 -91.41901891 336.85275873 -94.01094055 334.12442017 C-95.00094055 333.79442017 -95.99094055 333.46442017 -97.01094055 333.12442017 C-97.01094055 332.13442017 -97.01094055 331.14442017 -97.01094055 330.12442017 C-98.00094055 330.12442017 -98.99094055 330.12442017 -100.01094055 330.12442017 C-100.01094055 329.13442017 -100.01094055 328.14442017 -100.01094055 327.12442017 C-101.00094055 327.12442017 -101.99094055 327.12442017 -103.01094055 327.12442017 C-103.01094055 326.13442017 -103.01094055 325.14442017 -103.01094055 324.12442017 C-104.00094055 324.12442017 -104.99094055 324.12442017 -106.01094055 324.12442017 C-106.01094055 323.13442017 -106.01094055 322.14442017 -106.01094055 321.12442017 C-107.00094055 321.12442017 -107.99094055 321.12442017 -109.01094055 321.12442017 C-109.01094055 320.13442017 -109.01094055 319.14442017 -109.01094055 318.12442017 C-110.00094055 318.12442017 -110.99094055 318.12442017 -112.01094055 318.12442017 C-112.01094055 317.13442017 -112.01094055 316.14442017 -112.01094055 315.12442017 C-113.00094055 315.12442017 -113.99094055 315.12442017 -115.01094055 315.12442017 C-115.01094055 314.13442017 -115.01094055 313.14442017 -115.01094055 312.12442017 C-116.00094055 311.79442017 -116.99094055 311.46442017 -118.01094055 311.12442017 C-120.39216812 308.46304818 -121.87652645 306.52766247 -123.01094055 303.12442017 C-123.67094055 302.79442017 -124.33094055 302.46442017 -125.01094055 302.12442017 C-125.01094055 301.13442017 -125.01094055 300.14442017 -125.01094055 299.12442017 C-126.00094055 299.12442017 -126.99094055 299.12442017 -128.01094055 299.12442017 C-128.01094055 298.13442017 -128.01094055 297.14442017 -128.01094055 296.12442017 C-129.00094055 295.79442017 -129.99094055 295.46442017 -131.01094055 295.12442017 C-131.01094055 293.47442017 -131.01094055 291.82442017 -131.01094055 290.12442017 C-132.00094055 290.12442017 -132.99094055 290.12442017 -134.01094055 290.12442017 C-134.01094055 288.80442017 -134.01094055 287.48442017 -134.01094055 286.12442017 C-135.00094055 285.79442017 -135.99094055 285.46442017 -137.01094055 285.12442017 C-137.01094055 283.47442017 -137.01094055 281.82442017 -137.01094055 280.12442017 C-138.00094055 280.12442017 -138.99094055 280.12442017 -140.01094055 280.12442017 C-140.01094055 278.14442017 -140.01094055 276.16442017 -140.01094055 274.12442017 C-141.00094055 274.12442017 -141.99094055 274.12442017 -143.01094055 274.12442017 C-143.34094055 272.14442017 -143.67094055 270.16442017 -144.01094055 268.12442017 C-144.67094055 268.12442017 -145.33094055 268.12442017 -146.01094055 268.12442017 C-146.34094055 265.81442017 -146.67094055 263.50442017 -147.01094055 261.12442017 C-147.67094055 261.12442017 -148.33094055 261.12442017 -149.01094055 261.12442017 C-149.34094055 258.15442017 -149.67094055 255.18442017 -150.01094055 252.12442017 C-151.00094055 251.79442017 -151.99094055 251.46442017 -153.01094055 251.12442017 C-153.01094055 248.48442017 -153.01094055 245.84442017 -153.01094055 243.12442017 C-154.00094055 242.79442017 -154.99094055 242.46442017 -156.01094055 242.12442017 C-156.01094055 238.16442017 -156.01094055 234.20442017 -156.01094055 230.12442017 C-156.67094055 230.12442017 -157.33094055 230.12442017 -158.01094055 230.12442017 C-158.01094055 202.40442017 -158.01094055 174.68442017 -158.01094055 146.12442017 C-157.35094055 146.12442017 -156.69094055 146.12442017 -156.01094055 146.12442017 C-156.01094055 142.49442017 -156.01094055 138.86442017 -156.01094055 135.12442017 C-155.02094055 134.79442017 -154.03094055 134.46442017 -153.01094055 134.12442017 C-153.05219055 132.84567017 -153.09344055 131.56692017 -153.13594055 130.24942017 C-153.20625305 128.06973267 -153.20625305 128.06973267 -153.01094055 126.12442017 C-152.02094055 125.13442017 -152.02094055 125.13442017 -151.01094055 124.12442017 C-150.84594055 123.11379517 -150.68094055 122.10317017 -150.51094055 121.06192017 C-150.34594055 120.09254517 -150.18094055 119.12317017 -150.01094055 118.12442017 C-149.02094055 117.62942017 -149.02094055 117.62942017 -148.01094055 117.12442017 C-147.3262139 115.23677113 -147.3262139 115.23677113 -146.88594055 113.06192017 C-146.71836243 112.3284436 -146.5507843 111.59496704 -146.37812805 110.83926392 C-146.25695618 110.27336548 -146.1357843 109.70746704 -146.01094055 109.12442017 C-145.35094055 109.12442017 -144.69094055 109.12442017 -144.01094055 109.12442017 C-143.68094055 107.14442017 -143.35094055 105.16442017 -143.01094055 103.12442017 C-142.02094055 103.12442017 -141.03094055 103.12442017 -140.01094055 103.12442017 C-140.01094055 101.14442017 -140.01094055 99.16442017 -140.01094055 97.12442017 C-139.02094055 96.62942017 -139.02094055 96.62942017 -138.01094055 96.12442017 C-137.51594055 94.63942017 -137.51594055 94.63942017 -137.01094055 93.12442017 C-136.02094055 93.12442017 -135.03094055 93.12442017 -134.01094055 93.12442017 C-134.01094055 91.14442017 -134.01094055 89.16442017 -134.01094055 87.12442017 C-133.02094055 87.12442017 -132.03094055 87.12442017 -131.01094055 87.12442017 C-130.68094055 85.14442017 -130.35094055 83.16442017 -130.01094055 81.12442017 C-129.35094055 81.12442017 -128.69094055 81.12442017 -128.01094055 81.12442017 C-127.68094055 79.80442017 -127.35094055 78.48442017 -127.01094055 77.12442017 C-126.35094055 77.12442017 -125.69094055 77.12442017 -125.01094055 77.12442017 C-124.51594055 75.63942017 -124.51594055 75.63942017 -124.01094055 74.12442017 C-123.35094055 74.12442017 -122.69094055 74.12442017 -122.01094055 74.12442017 C-121.88719055 73.32004517 -121.76344055 72.51567017 -121.63594055 71.68692017 C-121.42969055 70.84129517 -121.22344055 69.99567017 -121.01094055 69.12442017 C-120.35094055 68.79442017 -119.69094055 68.46442017 -119.01094055 68.12442017 C-118.51594055 66.63942017 -118.51594055 66.63942017 -118.01094055 65.12442017 C-117.02094055 65.12442017 -116.03094055 65.12442017 -115.01094055 65.12442017 C-115.01094055 64.13442017 -115.01094055 63.14442017 -115.01094055 62.12442017 C-114.02094055 62.12442017 -113.03094055 62.12442017 -112.01094055 62.12442017 C-112.01094055 61.13442017 -112.01094055 60.14442017 -112.01094055 59.12442017 C-111.02094055 59.12442017 -110.03094055 59.12442017 -109.01094055 59.12442017 C-109.01094055 58.13442017 -109.01094055 57.14442017 -109.01094055 56.12442017 C-108.02094055 56.12442017 -107.03094055 56.12442017 -106.01094055 56.12442017 C-105.68094055 54.80442017 -105.35094055 53.48442017 -105.01094055 52.12442017 C-104.35094055 52.12442017 -103.69094055 52.12442017 -103.01094055 52.12442017 C-102.68094055 51.13442017 -102.35094055 50.14442017 -102.01094055 49.12442017 C-101.35094055 49.12442017 -100.69094055 49.12442017 -100.01094055 49.12442017 C-99.68094055 48.13442017 -99.35094055 47.14442017 -99.01094055 46.12442017 C-97.63594055 44.43692017 -97.63594055 44.43692017 -96.01094055 43.12442017 C-95.02094055 43.12442017 -94.03094055 43.12442017 -93.01094055 43.12442017 C-92.68094055 42.13442017 -92.35094055 41.14442017 -92.01094055 40.12442017 C-90.36094055 40.12442017 -88.71094055 40.12442017 -87.01094055 40.12442017 C-87.01094055 39.13442017 -87.01094055 38.14442017 -87.01094055 37.12442017 C-86.02094055 37.12442017 -85.03094055 37.12442017 -84.01094055 37.12442017 C-84.01094055 36.13442017 -84.01094055 35.14442017 -84.01094055 34.12442017 C-83.02094055 34.12442017 -82.03094055 34.12442017 -81.01094055 34.12442017 C-80.68094055 33.13442017 -80.35094055 32.14442017 -80.01094055 31.12442017 C-78.36094055 30.79442017 -76.71094055 30.46442017 -75.01094055 30.12442017 C-74.51594055 28.63942017 -74.51594055 28.63942017 -74.01094055 27.12442017 C-70.79809718 25.23862079 -68.76460472 24.12442017 -65.01094055 24.12442017 C-65.01094055 23.13442017 -65.01094055 22.14442017 -65.01094055 21.12442017 C-63.03094055 21.12442017 -61.05094055 21.12442017 -59.01094055 21.12442017 C-59.01094055 20.13442017 -59.01094055 19.14442017 -59.01094055 18.12442017 C-57.03094055 18.12442017 -55.05094055 18.12442017 -53.01094055 18.12442017 C-53.01094055 17.13442017 -53.01094055 16.14442017 -53.01094055 15.12442017 C-51.55687805 14.93879517 -51.55687805 14.93879517 -50.07344055 14.74942017 C-48.55750305 14.44004517 -48.55750305 14.44004517 -47.01094055 14.12442017 C-46.68094055 13.46442017 -46.35094055 12.80442017 -46.01094055 12.12442017 C-43.04094055 12.12442017 -40.07094055 12.12442017 -37.01094055 12.12442017 C-37.01094055 11.13442017 -37.01094055 10.14442017 -37.01094055 9.12442017 C-34.70094055 9.12442017 -32.39094055 9.12442017 -30.01094055 9.12442017 C-30.01094055 8.46442017 -30.01094055 7.80442017 -30.01094055 7.12442017 C-25.83356582 5.53303931 -22.47933271 4.91163959 -18.01094055 5.12442017 C-18.01094055 4.46442017 -18.01094055 3.80442017 -18.01094055 3.12442017 C-14.91562956 1.57676467 -11.64426426 1.68032566 -8.2257843 1.40567017 C-5.25494546 1.02842079 -3.30098418 0.00698905 0 0 Z M6.98905945 11.12442017 C4.5591381 11.40777733 2.11910924 11.61245476 -0.32344055 11.74942017 C-1.57769836 11.82418579 -2.83195618 11.89895142 -4.1242218 11.97598267 C-5.07683899 12.02496704 -6.02945618 12.07395142 -7.01094055 12.12442017 C-7.01094055 12.78442017 -7.01094055 13.44442017 -7.01094055 14.12442017 C-7.86558899 14.17340454 -8.72023743 14.22238892 -9.6007843 14.27285767 C-10.70551086 14.34762329 -11.81023743 14.42238892 -12.94844055 14.49942017 C-14.60166321 14.60383423 -14.60166321 14.60383423 -16.2882843 14.71035767 C-17.18676086 14.84699829 -18.08523743 14.98363892 -19.01094055 15.12442017 C-19.34094055 15.78442017 -19.67094055 16.44442017 -20.01094055 17.12442017 C-22.07359877 17.51561397 -24.10537323 17.63116536 -26.19844055 17.78067017 C-26.79656555 17.89410767 -27.39469055 18.00754517 -28.01094055 18.12442017 C-28.34094055 18.78442017 -28.67094055 19.44442017 -29.01094055 20.12442017 C-31.65954482 20.7179763 -34.30291377 20.86651285 -37.01094055 21.12442017 C-37.34094055 22.11442017 -37.67094055 23.10442017 -38.01094055 24.12442017 C-39.99094055 24.12442017 -41.97094055 24.12442017 -44.01094055 24.12442017 C-44.01094055 25.11442017 -44.01094055 26.10442017 -44.01094055 27.12442017 C-45.99094055 27.12442017 -47.97094055 27.12442017 -50.01094055 27.12442017 C-50.01094055 28.11442017 -50.01094055 29.10442017 -50.01094055 30.12442017 C-51.99094055 30.12442017 -53.97094055 30.12442017 -56.01094055 30.12442017 C-56.01094055 31.11442017 -56.01094055 32.10442017 -56.01094055 33.12442017 C-57.99094055 33.45442017 -59.97094055 33.78442017 -62.01094055 34.12442017 C-62.50594055 35.60942017 -62.50594055 35.60942017 -63.01094055 37.12442017 C-64.00094055 37.12442017 -64.99094055 37.12442017 -66.01094055 37.12442017 C-66.01094055 37.78442017 -66.01094055 38.44442017 -66.01094055 39.12442017 C-67.99094055 39.45442017 -69.97094055 39.78442017 -72.01094055 40.12442017 C-72.01094055 41.11442017 -72.01094055 42.10442017 -72.01094055 43.12442017 C-73.00094055 43.12442017 -73.99094055 43.12442017 -75.01094055 43.12442017 C-75.50594055 44.11442017 -75.50594055 44.11442017 -76.01094055 45.12442017 C-78.57344055 45.74942017 -78.57344055 45.74942017 -81.01094055 46.12442017 C-81.01094055 47.11442017 -81.01094055 48.10442017 -81.01094055 49.12442017 C-82.00094055 49.12442017 -82.99094055 49.12442017 -84.01094055 49.12442017 C-84.01094055 50.11442017 -84.01094055 51.10442017 -84.01094055 52.12442017 C-85.00094055 52.12442017 -85.99094055 52.12442017 -87.01094055 52.12442017 C-87.50594055 53.11442017 -87.50594055 53.11442017 -88.01094055 54.12442017 C-89.00094055 54.45442017 -89.99094055 54.78442017 -91.01094055 55.12442017 C-91.01094055 56.11442017 -91.01094055 57.10442017 -91.01094055 58.12442017 C-92.00094055 58.12442017 -92.99094055 58.12442017 -94.01094055 58.12442017 C-94.01094055 59.11442017 -94.01094055 60.10442017 -94.01094055 61.12442017 C-95.00094055 61.12442017 -95.99094055 61.12442017 -97.01094055 61.12442017 C-97.01094055 62.11442017 -97.01094055 63.10442017 -97.01094055 64.12442017 C-98.00094055 64.45442017 -98.99094055 64.78442017 -100.01094055 65.12442017 C-101.36922026 66.77081981 -102.70348306 68.43737824 -104.01094055 70.12442017 C-105.00094055 70.61942017 -105.00094055 70.61942017 -106.01094055 71.12442017 C-106.01094055 72.11442017 -106.01094055 73.10442017 -106.01094055 74.12442017 C-107.00094055 74.12442017 -107.99094055 74.12442017 -109.01094055 74.12442017 C-109.01094055 75.11442017 -109.01094055 76.10442017 -109.01094055 77.12442017 C-110.00094055 77.12442017 -110.99094055 77.12442017 -112.01094055 77.12442017 C-112.01094055 78.11442017 -112.01094055 79.10442017 -112.01094055 80.12442017 C-113.00094055 80.12442017 -113.99094055 80.12442017 -115.01094055 80.12442017 C-115.34094055 82.10442017 -115.67094055 84.08442017 -116.01094055 86.12442017 C-117.00094055 86.45442017 -117.99094055 86.78442017 -119.01094055 87.12442017 C-119.01094055 88.11442017 -119.01094055 89.10442017 -119.01094055 90.12442017 C-120.00094055 90.12442017 -120.99094055 90.12442017 -122.01094055 90.12442017 C-122.13469055 90.92879517 -122.25844055 91.73317017 -122.38594055 92.56192017 C-122.69531555 93.83035767 -122.69531555 93.83035767 -123.01094055 95.12442017 C-124.00094055 95.61942017 -124.00094055 95.61942017 -125.01094055 96.12442017 C-125.01094055 97.11442017 -125.01094055 98.10442017 -125.01094055 99.12442017 C-126.00094055 99.12442017 -126.99094055 99.12442017 -128.01094055 99.12442017 C-128.01094055 101.10442017 -128.01094055 103.08442017 -128.01094055 105.12442017 C-129.00094055 105.12442017 -129.99094055 105.12442017 -131.01094055 105.12442017 C-131.13469055 106.09379517 -131.25844055 107.06317017 -131.38594055 108.06192017 C-131.59219055 109.07254517 -131.79844055 110.08317017 -132.01094055 111.12442017 C-133.00094055 111.61942017 -133.00094055 111.61942017 -134.01094055 112.12442017 C-134.17594055 112.94942017 -134.34094055 113.77442017 -134.51094055 114.62442017 C-134.67594055 115.44942017 -134.84094055 116.27442017 -135.01094055 117.12442017 C-136.00094055 117.61942017 -136.00094055 117.61942017 -137.01094055 118.12442017 C-137.47745262 120.25018799 -137.47745262 120.25018799 -137.63594055 122.68692017 C-137.71070618 123.51320923 -137.7854718 124.33949829 -137.86250305 125.19082642 C-137.91148743 125.82891235 -137.9604718 126.46699829 -138.01094055 127.12442017 C-138.67094055 127.12442017 -139.33094055 127.12442017 -140.01094055 127.12442017 C-140.34094055 130.09442017 -140.67094055 133.06442017 -141.01094055 136.12442017 C-142.00094055 136.12442017 -142.99094055 136.12442017 -144.01094055 136.12442017 C-144.01094055 139.42442017 -144.01094055 142.72442017 -144.01094055 146.12442017 C-145.00094055 146.12442017 -145.99094055 146.12442017 -147.01094055 146.12442017 C-147.05992493 147.1956311 -147.1089093 148.26684204 -147.15937805 149.37051392 C-147.2343935 150.76767656 -147.30994185 152.16481066 -147.38594055 153.56192017 C-147.41687805 154.26897095 -147.44781555 154.97602173 -147.47969055 155.70449829 C-147.58374684 157.51681205 -147.79013947 159.32260005 -148.01094055 161.12442017 C-148.67094055 161.45442017 -149.33094055 161.78442017 -150.01094055 162.12442017 C-150.01094055 165.09442017 -150.01094055 168.06442017 -150.01094055 171.12442017 C-125.26094055 171.12442017 -100.51094055 171.12442017 -75.01094055 171.12442017 C-74.68094055 169.47442017 -74.35094055 167.82442017 -74.01094055 166.12442017 C-73.35094055 165.79442017 -72.69094055 165.46442017 -72.01094055 165.12442017 C-71.54195092 162.30843526 -71.54195092 162.30843526 -71.38594055 159.06192017 C-71.27379211 157.40483032 -71.27379211 157.40483032 -71.15937805 155.71426392 C-71.08590149 154.43229126 -71.08590149 154.43229126 -71.01094055 153.12442017 C-70.35094055 153.12442017 -69.69094055 153.12442017 -69.01094055 153.12442017 C-68.68094055 150.81442017 -68.35094055 148.50442017 -68.01094055 146.12442017 C-67.02094055 146.12442017 -66.03094055 146.12442017 -65.01094055 146.12442017 C-65.01094055 144.14442017 -65.01094055 142.16442017 -65.01094055 140.12442017 C-64.02094055 140.12442017 -63.03094055 140.12442017 -62.01094055 140.12442017 C-62.01094055 138.14442017 -62.01094055 136.16442017 -62.01094055 134.12442017 C-61.02094055 134.12442017 -60.03094055 134.12442017 -59.01094055 134.12442017 C-58.88719055 133.32004517 -58.76344055 132.51567017 -58.63594055 131.68692017 C-58.42969055 130.84129517 -58.22344055 129.99567017 -58.01094055 129.12442017 C-57.35094055 128.79442017 -56.69094055 128.46442017 -56.01094055 128.12442017 C-55.51594055 126.63942017 -55.51594055 126.63942017 -55.01094055 125.12442017 C-54.35094055 124.79442017 -53.69094055 124.46442017 -53.01094055 124.12442017 C-53.01094055 123.13442017 -53.01094055 122.14442017 -53.01094055 121.12442017 C-52.02094055 121.12442017 -51.03094055 121.12442017 -50.01094055 121.12442017 C-50.01094055 120.13442017 -50.01094055 119.14442017 -50.01094055 118.12442017 C-49.02094055 118.12442017 -48.03094055 118.12442017 -47.01094055 118.12442017 C-47.01094055 117.13442017 -47.01094055 116.14442017 -47.01094055 115.12442017 C-46.02094055 115.12442017 -45.03094055 115.12442017 -44.01094055 115.12442017 C-44.01094055 114.13442017 -44.01094055 113.14442017 -44.01094055 112.12442017 C-42.69094055 112.12442017 -41.37094055 112.12442017 -40.01094055 112.12442017 C-40.01094055 111.13442017 -40.01094055 110.14442017 -40.01094055 109.12442017 C-39.02094055 109.12442017 -38.03094055 109.12442017 -37.01094055 109.12442017 C-37.01094055 108.13442017 -37.01094055 107.14442017 -37.01094055 106.12442017 C-36.02094055 105.79442017 -35.03094055 105.46442017 -34.01094055 105.12442017 C-33.68094055 104.46442017 -33.35094055 103.80442017 -33.01094055 103.12442017 C-32.02094055 102.79442017 -31.03094055 102.46442017 -30.01094055 102.12442017 C-30.01094055 101.46442017 -30.01094055 100.80442017 -30.01094055 100.12442017 C-29.20656555 100.00067017 -28.40219055 99.87692017 -27.57344055 99.74942017 C-26.30500305 99.44004517 -26.30500305 99.44004517 -25.01094055 99.12442017 C-24.68094055 98.46442017 -24.35094055 97.80442017 -24.01094055 97.12442017 C-22.34427389 96.79108683 -20.67760722 96.4577535 -19.01094055 96.12442017 C-18.68094055 95.46442017 -18.35094055 94.80442017 -18.01094055 94.12442017 C-14.94844055 93.49942017 -14.94844055 93.49942017 -12.01094055 93.12442017 C-12.01094055 92.13442017 -12.01094055 91.14442017 -12.01094055 90.12442017 C-10.03094055 90.12442017 -8.05094055 90.12442017 -6.01094055 90.12442017 C-5.68094055 89.46442017 -5.35094055 88.80442017 -5.01094055 88.12442017 C-2.9445343 87.71035767 -2.9445343 87.71035767 -0.44844055 87.49942017 C0.79099304 87.38727173 0.79099304 87.38727173 2.0554657 87.27285767 C2.69355164 87.22387329 3.33163757 87.17488892 3.98905945 87.12442017 C3.98905945 86.13442017 3.98905945 85.14442017 3.98905945 84.12442017 C9.92905945 84.12442017 15.86905945 84.12442017 21.98905945 84.12442017 C22.31905945 83.13442017 22.64905945 82.14442017 22.98905945 81.12442017 C24.63905945 81.12442017 26.28905945 81.12442017 27.98905945 81.12442017 C27.98905945 57.36442017 27.98905945 33.60442017 27.98905945 9.12442017 C13.56746982 8.13404503 13.56746982 8.13404503 6.98905945 11.12442017 Z M39.98905945 9.12442017 C39.98905945 32.88442017 39.98905945 56.64442017 39.98905945 81.12442017 C41.63905945 81.45442017 43.28905945 81.78442017 44.98905945 82.12442017 C44.98905945 82.78442017 44.98905945 83.44442017 44.98905945 84.12442017 C50.59905945 84.12442017 56.20905945 84.12442017 61.98905945 84.12442017 C61.98905945 85.11442017 61.98905945 86.10442017 61.98905945 87.12442017 C65.28905945 87.12442017 68.58905945 87.12442017 71.98905945 87.12442017 C71.98905945 88.11442017 71.98905945 89.10442017 71.98905945 90.12442017 C73.28843445 90.24817017 74.58780945 90.37192017 75.92655945 90.49942017 C78.1414032 90.71035767 78.1414032 90.71035767 79.98905945 91.12442017 C80.31905945 91.78442017 80.64905945 92.44442017 80.98905945 93.12442017 C81.81405945 93.28942017 82.63905945 93.45442017 83.48905945 93.62442017 C84.31405945 93.78942017 85.13905945 93.95442017 85.98905945 94.12442017 C86.31905945 94.78442017 86.64905945 95.44442017 86.98905945 96.12442017 C87.97905945 96.45442017 88.96905945 96.78442017 89.98905945 97.12442017 C90.31905945 97.78442017 90.64905945 98.44442017 90.98905945 99.12442017 C91.75218445 99.22754517 92.51530945 99.33067017 93.30155945 99.43692017 C95.98905945 100.12442017 95.98905945 100.12442017 97.92655945 102.56192017 C100.41339266 105.65162203 102.15357274 106.30835916 105.98905945 107.12442017 C106.97905945 106.79442017 107.96905945 106.46442017 108.98905945 106.12442017 C109.48405945 104.63942017 109.48405945 104.63942017 109.98905945 103.12442017 C110.97905945 102.79442017 111.96905945 102.46442017 112.98905945 102.12442017 C112.98905945 101.13442017 112.98905945 100.14442017 112.98905945 99.12442017 C113.97905945 99.12442017 114.96905945 99.12442017 115.98905945 99.12442017 C115.98905945 98.13442017 115.98905945 97.14442017 115.98905945 96.12442017 C116.97905945 96.12442017 117.96905945 96.12442017 118.98905945 96.12442017 C118.98905945 95.13442017 118.98905945 94.14442017 118.98905945 93.12442017 C119.97905945 93.12442017 120.96905945 93.12442017 121.98905945 93.12442017 C121.98905945 92.13442017 121.98905945 91.14442017 121.98905945 90.12442017 C122.97905945 90.12442017 123.96905945 90.12442017 124.98905945 90.12442017 C124.98905945 89.13442017 124.98905945 88.14442017 124.98905945 87.12442017 C125.97905945 87.12442017 126.96905945 87.12442017 127.98905945 87.12442017 C127.98905945 86.13442017 127.98905945 85.14442017 127.98905945 84.12442017 C128.97905945 84.12442017 129.96905945 84.12442017 130.98905945 84.12442017 C130.98905945 83.13442017 130.98905945 82.14442017 130.98905945 81.12442017 C131.97905945 81.12442017 132.96905945 81.12442017 133.98905945 81.12442017 C134.48405945 79.14442017 134.48405945 79.14442017 134.98905945 77.12442017 C135.97905945 77.12442017 136.96905945 77.12442017 137.98905945 77.12442017 C137.98905945 76.13442017 137.98905945 75.14442017 137.98905945 74.12442017 C138.97905945 74.12442017 139.96905945 74.12442017 140.98905945 74.12442017 C140.98905945 73.13442017 140.98905945 72.14442017 140.98905945 71.12442017 C141.97905945 71.12442017 142.96905945 71.12442017 143.98905945 71.12442017 C143.98905945 70.13442017 143.98905945 69.14442017 143.98905945 68.12442017 C144.97905945 68.12442017 145.96905945 68.12442017 146.98905945 68.12442017 C146.98905945 67.13442017 146.98905945 66.14442017 146.98905945 65.12442017 C147.97905945 65.12442017 148.96905945 65.12442017 149.98905945 65.12442017 C149.98905945 64.13442017 149.98905945 63.14442017 149.98905945 62.12442017 C150.97905945 62.12442017 151.96905945 62.12442017 152.98905945 62.12442017 C152.98905945 61.13442017 152.98905945 60.14442017 152.98905945 59.12442017 C153.97905945 59.12442017 154.96905945 59.12442017 155.98905945 59.12442017 C157.69438268 57.18432494 157.69438268 57.18432494 158.98905945 55.12442017 C157.99905945 55.12442017 157.00905945 55.12442017 155.98905945 55.12442017 C155.98905945 54.13442017 155.98905945 53.14442017 155.98905945 52.12442017 C155.18468445 52.00067017 154.38030945 51.87692017 153.55155945 51.74942017 C152.70593445 51.54317017 151.86030945 51.33692017 150.98905945 51.12442017 C150.65905945 50.46442017 150.32905945 49.80442017 149.98905945 49.12442017 C148.99905945 49.12442017 148.00905945 49.12442017 146.98905945 49.12442017 C146.98905945 48.13442017 146.98905945 47.14442017 146.98905945 46.12442017 C145.99905945 46.12442017 145.00905945 46.12442017 143.98905945 46.12442017 C143.98905945 45.13442017 143.98905945 44.14442017 143.98905945 43.12442017 C143.18468445 43.00067017 142.38030945 42.87692017 141.55155945 42.74942017 C140.70593445 42.54317017 139.86030945 42.33692017 138.98905945 42.12442017 C138.65905945 41.46442017 138.32905945 40.80442017 137.98905945 40.12442017 C136.50405945 39.62942017 136.50405945 39.62942017 134.98905945 39.12442017 C134.49405945 38.13442017 134.49405945 38.13442017 133.98905945 37.12442017 C130.95971454 36.46669589 130.95971454 36.46669589 127.98905945 36.12442017 C127.98905945 35.46442017 127.98905945 34.80442017 127.98905945 34.12442017 C127.34968445 33.83567017 126.71030945 33.54692017 126.05155945 33.24942017 C123.98905945 32.12442017 123.98905945 32.12442017 122.98905945 30.12442017 C121.66905945 30.12442017 120.34905945 30.12442017 118.98905945 30.12442017 C118.98905945 29.13442017 118.98905945 28.14442017 118.98905945 27.12442017 C116.34905945 26.79442017 113.70905945 26.46442017 110.98905945 26.12442017 C110.98905945 25.46442017 110.98905945 24.80442017 110.98905945 24.12442017 C109.85468445 24.00067017 108.72030945 23.87692017 107.55155945 23.74942017 C106.37593445 23.54317017 105.20030945 23.33692017 103.98905945 23.12442017 C103.49405945 22.13442017 103.49405945 22.13442017 102.98905945 21.12442017 C101.00905945 21.12442017 99.02905945 21.12442017 96.98905945 21.12442017 C96.98905945 20.13442017 96.98905945 19.14442017 96.98905945 18.12442017 C96.37417664 18.07543579 95.75929382 18.02645142 95.1257782 17.97598267 C94.31753601 17.90121704 93.50929382 17.82645142 92.67655945 17.74942017 C91.87605164 17.67981079 91.07554382 17.61020142 90.2507782 17.53848267 C87.98905945 17.12442017 87.98905945 17.12442017 84.98905945 15.12442017 C82.63982167 14.76173082 80.3212403 14.6216487 77.94999695 14.46817017 C77.30288757 14.35473267 76.6557782 14.24129517 75.98905945 14.12442017 C75.49405945 13.13442017 75.49405945 13.13442017 74.98905945 12.12442017 C72.54749188 11.86239828 70.18763948 11.70281162 67.73905945 11.62442017 C62.96169628 11.46793621 59.55669798 10.95147558 54.98905945 9.12442017 C50.03905945 9.12442017 45.08905945 9.12442017 39.98905945 9.12442017 Z M14.98905945 95.12442017 C12.5789032 95.50332642 12.5789032 95.50332642 9.92655945 95.68692017 C6.32145902 95.90075463 6.32145902 95.90075463 2.98905945 97.12442017 C2.98905945 97.78442017 2.98905945 98.44442017 2.98905945 99.12442017 C1.00905945 99.12442017 -0.97094055 99.12442017 -3.01094055 99.12442017 C-3.34094055 100.11442017 -3.67094055 101.10442017 -4.01094055 102.12442017 C-4.95969055 102.08317017 -5.90844055 102.04192017 -6.88594055 101.99942017 C-10.11338911 101.77468199 -10.11338911 101.77468199 -12.01094055 104.12442017 C-14.13594055 104.74942017 -14.13594055 104.74942017 -16.01094055 105.12442017 C-16.01094055 106.11442017 -16.01094055 107.10442017 -16.01094055 108.12442017 C-17.40312805 108.27910767 -17.40312805 108.27910767 -18.82344055 108.43692017 C-22.0355826 109.12973512 -23.13024072 109.51233707 -25.01094055 112.12442017 C-25.01094055 112.78442017 -25.01094055 113.44442017 -25.01094055 114.12442017 C-27.98094055 114.61942017 -27.98094055 114.61942017 -31.01094055 115.12442017 C-31.01094055 116.11442017 -31.01094055 117.10442017 -31.01094055 118.12442017 C-32.00094055 118.12442017 -32.99094055 118.12442017 -34.01094055 118.12442017 C-34.01094055 119.11442017 -34.01094055 120.10442017 -34.01094055 121.12442017 C-35.00094055 121.12442017 -35.99094055 121.12442017 -37.01094055 121.12442017 C-37.34094055 121.78442017 -37.67094055 122.44442017 -38.01094055 123.12442017 C-39.00094055 123.45442017 -39.99094055 123.78442017 -41.01094055 124.12442017 C-43.47646122 127.50309664 -44.01094055 128.83000219 -44.01094055 133.12442017 C-45.00094055 133.12442017 -45.99094055 133.12442017 -47.01094055 133.12442017 C-47.34094055 134.11442017 -47.67094055 135.10442017 -48.01094055 136.12442017 C-49.00094055 136.61942017 -49.00094055 136.61942017 -50.01094055 137.12442017 C-50.17594055 137.94942017 -50.34094055 138.77442017 -50.51094055 139.62442017 C-50.67594055 140.44942017 -50.84094055 141.27442017 -51.01094055 142.12442017 C-52.00094055 142.61942017 -52.00094055 142.61942017 -53.01094055 143.12442017 C-53.66866483 146.15376507 -53.66866483 146.15376507 -54.01094055 149.12442017 C-54.67094055 149.12442017 -55.33094055 149.12442017 -56.01094055 149.12442017 C-56.13469055 149.92879517 -56.25844055 150.73317017 -56.38594055 151.56192017 C-56.59219055 152.40754517 -56.79844055 153.25317017 -57.01094055 154.12442017 C-58.00094055 154.61942017 -58.00094055 154.61942017 -59.01094055 155.12442017 C-59.66147955 157.21053575 -59.66147955 157.21053575 -60.07344055 159.62442017 C-60.91700709 164.0304867 -60.91700709 164.0304867 -62.01094055 165.12442017 C-62.16676359 166.46457238 -62.26138197 167.8120092 -62.3273468 169.15957642 C-62.36924133 169.96846313 -62.41113586 170.77734985 -62.45429993 171.61074829 C-62.49361633 172.46088501 -62.53293274 173.31102173 -62.57344055 174.18692017 C-62.61662415 175.04092407 -62.65980774 175.89492798 -62.70429993 176.77481079 C-62.81070757 178.89114054 -62.91135786 181.0077583 -63.01094055 183.12442017 C-64.49594055 183.61942017 -64.49594055 183.61942017 -66.01094055 184.12442017 C-66.01094055 187.09442017 -66.01094055 190.06442017 -66.01094055 193.12442017 C-65.02094055 193.45442017 -64.03094055 193.78442017 -63.01094055 194.12442017 C-62.68094055 200.06442017 -62.35094055 206.00442017 -62.01094055 212.12442017 C-61.35094055 212.12442017 -60.69094055 212.12442017 -60.01094055 212.12442017 C-59.96195618 212.75090454 -59.9129718 213.37738892 -59.86250305 214.02285767 C-59.78773743 214.84012329 -59.7129718 215.65738892 -59.63594055 216.49942017 C-59.56633118 217.31152954 -59.4967218 218.12363892 -59.42500305 218.96035767 C-59.18201467 221.32776207 -59.18201467 221.32776207 -57.01094055 223.12442017 C-56.30467816 225.11078314 -55.64200484 227.11290275 -55.01094055 229.12442017 C-53.90427748 232.89198749 -53.90427748 232.89198749 -51.01094055 235.12442017 C-50.38594055 237.68692017 -50.38594055 237.68692017 -50.01094055 240.12442017 C-49.02094055 240.12442017 -48.03094055 240.12442017 -47.01094055 240.12442017 C-46.51594055 242.10442017 -46.51594055 242.10442017 -46.01094055 244.12442017 C-45.35094055 244.12442017 -44.69094055 244.12442017 -44.01094055 244.12442017 C-44.01094055 245.77442017 -44.01094055 247.42442017 -44.01094055 249.12442017 C-43.02094055 249.12442017 -42.03094055 249.12442017 -41.01094055 249.12442017 C-41.01094055 250.11442017 -41.01094055 251.10442017 -41.01094055 252.12442017 C-40.02094055 252.45442017 -39.03094055 252.78442017 -38.01094055 253.12442017 C-37.68094055 254.11442017 -37.35094055 255.10442017 -37.01094055 256.12442017 C-36.02094055 256.12442017 -35.03094055 256.12442017 -34.01094055 256.12442017 C-34.01094055 257.11442017 -34.01094055 258.10442017 -34.01094055 259.12442017 C-33.02094055 259.12442017 -32.03094055 259.12442017 -31.01094055 259.12442017 C-31.01094055 260.11442017 -31.01094055 261.10442017 -31.01094055 262.12442017 C-27.67790664 264.6241956 -26.27790453 265.12442017 -22.01094055 265.12442017 C-22.01094055 266.11442017 -22.01094055 267.10442017 -22.01094055 268.12442017 C-21.02094055 268.12442017 -20.03094055 268.12442017 -19.01094055 268.12442017 C-19.01094055 269.11442017 -19.01094055 270.10442017 -19.01094055 271.12442017 C-17.03094055 271.12442017 -15.05094055 271.12442017 -13.01094055 271.12442017 C-12.68094055 272.11442017 -12.35094055 273.10442017 -12.01094055 274.12442017 C-10.80437805 274.31004517 -10.80437805 274.31004517 -9.57344055 274.49942017 C-8.72781555 274.70567017 -7.88219055 274.91192017 -7.01094055 275.12442017 C-6.68094055 275.78442017 -6.35094055 276.44442017 -6.01094055 277.12442017 C-3.88517273 277.59093223 -3.88517273 277.59093223 -1.44844055 277.74942017 C-0.20900696 277.8615686 -0.20900696 277.8615686 1.0554657 277.97598267 C1.69355164 278.02496704 2.33163757 278.07395142 2.98905945 278.12442017 C2.98905945 278.78442017 2.98905945 279.44442017 2.98905945 280.12442017 C7.04181105 281.1069054 10.82767682 281.2060159 14.98905945 281.12442017 C14.98905945 282.11442017 14.98905945 283.10442017 14.98905945 284.12442017 C27.52905945 284.12442017 40.06905945 284.12442017 52.98905945 284.12442017 C53.31905945 283.46442017 53.64905945 282.80442017 53.98905945 282.12442017 C56.16874695 281.56192017 56.16874695 281.56192017 58.86405945 281.12442017 C62.36926161 280.55214226 63.95975221 280.14395832 66.98905945 278.12442017 C67.85530945 277.95942017 68.72155945 277.79442017 69.61405945 277.62442017 C70.39780945 277.45942017 71.18155945 277.29442017 71.98905945 277.12442017 C72.31905945 276.46442017 72.64905945 275.80442017 72.98905945 275.12442017 C74.96794906 274.39748113 76.96860502 273.72625765 78.98905945 273.12442017 C78.98905945 272.46442017 78.98905945 271.80442017 78.98905945 271.12442017 C80.63905945 271.12442017 82.28905945 271.12442017 83.98905945 271.12442017 C84.31905945 270.13442017 84.64905945 269.14442017 84.98905945 268.12442017 C86.96905945 268.12442017 88.94905945 268.12442017 90.98905945 268.12442017 C90.98905945 267.13442017 90.98905945 266.14442017 90.98905945 265.12442017 C91.97905945 265.12442017 92.96905945 265.12442017 93.98905945 265.12442017 C93.98905945 264.13442017 93.98905945 263.14442017 93.98905945 262.12442017 C94.97905945 262.12442017 95.96905945 262.12442017 96.98905945 262.12442017 C96.98905945 261.13442017 96.98905945 260.14442017 96.98905945 259.12442017 C96.32905945 258.79442017 95.66905945 258.46442017 94.98905945 258.12442017 C94.65905945 257.13442017 94.32905945 256.14442017 93.98905945 255.12442017 C92.99905945 255.12442017 92.00905945 255.12442017 90.98905945 255.12442017 C90.98905945 254.13442017 90.98905945 253.14442017 90.98905945 252.12442017 C89.99905945 252.12442017 89.00905945 252.12442017 87.98905945 252.12442017 C87.98905945 251.13442017 87.98905945 250.14442017 87.98905945 249.12442017 C86.66905945 249.12442017 85.34905945 249.12442017 83.98905945 249.12442017 C83.65905945 248.13442017 83.32905945 247.14442017 82.98905945 246.12442017 C82.32905945 246.12442017 81.66905945 246.12442017 80.98905945 246.12442017 C80.98905945 247.11442017 80.98905945 248.10442017 80.98905945 249.12442017 C79.99905945 249.12442017 79.00905945 249.12442017 77.98905945 249.12442017 C77.98905945 250.11442017 77.98905945 251.10442017 77.98905945 252.12442017 C76.00905945 252.12442017 74.02905945 252.12442017 71.98905945 252.12442017 C71.98905945 253.11442017 71.98905945 254.10442017 71.98905945 255.12442017 C70.00905945 255.12442017 68.02905945 255.12442017 65.98905945 255.12442017 C65.65905945 255.78442017 65.32905945 256.44442017 64.98905945 257.12442017 C58.97918072 260.9899975 52.91896251 261.6331687 45.9070282 261.85098267 C43.05595068 261.93452182 43.05595068 261.93452182 41.0242157 263.14004517 C38.07351237 264.56725676 35.48971427 264.31443326 32.23905945 264.24942017 C31.0685907 264.23137329 29.89812195 264.21332642 28.69218445 264.19473267 C27.8001532 264.17152954 26.90812195 264.14832642 25.98905945 264.12442017 C25.98905945 263.46442017 25.98905945 262.80442017 25.98905945 262.12442017 C20.70905945 261.79442017 15.42905945 261.46442017 9.98905945 261.12442017 C9.98905945 260.46442017 9.98905945 259.80442017 9.98905945 259.12442017 C7.01905945 258.79442017 4.04905945 258.46442017 0.98905945 258.12442017 C0.65905945 257.13442017 0.32905945 256.14442017 -0.01094055 255.12442017 C-0.81531555 255.00067017 -1.61969055 254.87692017 -2.44844055 254.74942017 C-3.29406555 254.54317017 -4.13969055 254.33692017 -5.01094055 254.12442017 C-5.34094055 253.46442017 -5.67094055 252.80442017 -6.01094055 252.12442017 C-7.00094055 252.12442017 -7.99094055 252.12442017 -9.01094055 252.12442017 C-9.01094055 251.13442017 -9.01094055 250.14442017 -9.01094055 249.12442017 C-10.21750305 248.93879517 -10.21750305 248.93879517 -11.44844055 248.74942017 C-12.29406555 248.54317017 -13.13969055 248.33692017 -14.01094055 248.12442017 C-14.34094055 247.46442017 -14.67094055 246.80442017 -15.01094055 246.12442017 C-16.00094055 246.12442017 -16.99094055 246.12442017 -18.01094055 246.12442017 C-18.34094055 245.13442017 -18.67094055 244.14442017 -19.01094055 243.12442017 C-20.66096883 241.77055081 -22.32837925 240.43763874 -24.01094055 239.12442017 C-24.67094055 238.13442017 -25.33094055 237.14442017 -26.01094055 236.12442017 C-26.67094055 236.12442017 -27.33094055 236.12442017 -28.01094055 236.12442017 C-28.13469055 235.38192017 -28.25844055 234.63942017 -28.38594055 233.87442017 C-28.96580756 231.32300532 -29.74802794 229.39766286 -31.01094055 227.12442017 C-32.00094055 227.12442017 -32.99094055 227.12442017 -34.01094055 227.12442017 C-34.01094055 225.14442017 -34.01094055 223.16442017 -34.01094055 221.12442017 C-35.00094055 221.12442017 -35.99094055 221.12442017 -37.01094055 221.12442017 C-37.01094055 219.14442017 -37.01094055 217.16442017 -37.01094055 215.12442017 C-38.49594055 214.62942017 -38.49594055 214.62942017 -40.01094055 214.12442017 C-39.9132843 212.3015035 -39.81562805 210.47858683 -39.7179718 208.65567017 C-39.91841805 205.88010994 -39.91841805 205.88010994 -41.51094055 202.59317017 C-43.6443487 197.18676938 -43.33834734 191.85701108 -43.19844055 186.12442017 C-43.1849054 185.06352173 -43.17137024 184.00262329 -43.15742493 182.90957642 C-43.12234934 180.31398329 -43.07319899 177.7194795 -43.01094055 175.12442017 C-42.35094055 175.12442017 -41.69094055 175.12442017 -41.01094055 175.12442017 C-40.88976868 174.26977173 -40.7685968 173.41512329 -40.64375305 172.53457642 C-40.47617493 171.42984985 -40.3085968 170.32512329 -40.13594055 169.18692017 C-39.97351868 168.08477173 -39.8110968 166.98262329 -39.64375305 165.84707642 C-39.43492493 164.94859985 -39.2260968 164.05012329 -39.01094055 163.12442017 C-38.02094055 162.62942017 -38.02094055 162.62942017 -37.01094055 162.12442017 C-37.01094055 160.14442017 -37.01094055 158.16442017 -37.01094055 156.12442017 C-36.02094055 156.12442017 -35.03094055 156.12442017 -34.01094055 156.12442017 C-33.82531555 154.67035767 -33.82531555 154.67035767 -33.63594055 153.18692017 C-33.42969055 152.17629517 -33.22344055 151.16567017 -33.01094055 150.12442017 C-32.35094055 149.79442017 -31.69094055 149.46442017 -31.01094055 149.12442017 C-31.01094055 148.13442017 -31.01094055 147.14442017 -31.01094055 146.12442017 C-30.02094055 146.12442017 -29.03094055 146.12442017 -28.01094055 146.12442017 C-27.78406555 145.42317017 -27.55719055 144.72192017 -27.32344055 143.99942017 C-25.66545439 140.36764095 -23.73736121 138.05033502 -21.01094055 135.12442017 C-20.02094055 134.79442017 -19.03094055 134.46442017 -18.01094055 134.12442017 C-18.01094055 133.13442017 -18.01094055 132.14442017 -18.01094055 131.12442017 C-15.04094055 130.62942017 -15.04094055 130.62942017 -12.01094055 130.12442017 C-12.01094055 129.13442017 -12.01094055 128.14442017 -12.01094055 127.12442017 C-11.02094055 127.12442017 -10.03094055 127.12442017 -9.01094055 127.12442017 C-9.01094055 126.13442017 -9.01094055 125.14442017 -9.01094055 124.12442017 C-7.03094055 124.12442017 -5.05094055 124.12442017 -3.01094055 124.12442017 C-3.01094055 123.13442017 -3.01094055 122.14442017 -3.01094055 121.12442017 C-1.03094055 121.12442017 0.94905945 121.12442017 2.98905945 121.12442017 C3.31905945 120.46442017 3.64905945 119.80442017 3.98905945 119.12442017 C6.30753819 118.40779947 8.64225648 117.74199989 10.98905945 117.12442017 C11.97905945 116.62942017 11.97905945 116.62942017 12.98905945 116.12442017 C14.37723617 116.00715358 15.77054659 115.9476061 17.16337585 115.9190979 C18.02411713 115.89915268 18.8848584 115.87920746 19.77168274 115.85865784 C20.70193268 115.84194534 21.63218262 115.82523285 22.59062195 115.80801392 C23.54222198 115.78723282 24.49382202 115.76645172 25.47425842 115.74504089 C28.52078377 115.67953883 31.56739688 115.62065737 34.61405945 115.56192017 C36.67656861 115.51873557 38.73906882 115.4751213 40.80155945 115.43106079 C45.86396899 115.32385676 50.926467 115.22259115 55.98905945 115.12442017 C55.98905945 116.11442017 55.98905945 117.10442017 55.98905945 118.12442017 C58.95905945 118.12442017 61.92905945 118.12442017 64.98905945 118.12442017 C64.98905945 119.11442017 64.98905945 120.10442017 64.98905945 121.12442017 C65.95843445 121.24817017 66.92780945 121.37192017 67.92655945 121.49942017 C68.93718445 121.70567017 69.94780945 121.91192017 70.98905945 122.12442017 C71.31905945 122.78442017 71.64905945 123.44442017 71.98905945 124.12442017 C74.5163918 124.77997136 74.5163918 124.77997136 76.98905945 125.12442017 C76.98905945 125.78442017 76.98905945 126.44442017 76.98905945 127.12442017 C77.97905945 127.45442017 78.96905945 127.78442017 79.98905945 128.12442017 C80.31905945 128.78442017 80.64905945 129.44442017 80.98905945 130.12442017 C81.97905945 130.12442017 82.96905945 130.12442017 83.98905945 130.12442017 C84.31905945 129.46442017 84.64905945 128.80442017 84.98905945 128.12442017 C85.97905945 127.79442017 86.96905945 127.46442017 87.98905945 127.12442017 C87.98905945 126.13442017 87.98905945 125.14442017 87.98905945 124.12442017 C88.97905945 124.12442017 89.96905945 124.12442017 90.98905945 124.12442017 C90.98905945 123.13442017 90.98905945 122.14442017 90.98905945 121.12442017 C91.97905945 121.12442017 92.96905945 121.12442017 93.98905945 121.12442017 C93.98905945 120.13442017 93.98905945 119.14442017 93.98905945 118.12442017 C94.97905945 118.12442017 95.96905945 118.12442017 96.98905945 118.12442017 C96.98905945 117.13442017 96.98905945 116.14442017 96.98905945 115.12442017 C95.99905945 115.12442017 95.00905945 115.12442017 93.98905945 115.12442017 C93.98905945 114.13442017 93.98905945 113.14442017 93.98905945 112.12442017 C92.00905945 111.79442017 90.02905945 111.46442017 87.98905945 111.12442017 C87.98905945 110.46442017 87.98905945 109.80442017 87.98905945 109.12442017 C86.40765142 106.87507849 86.40765142 106.87507849 83.98905945 105.12442017 C80.82122745 104.78993757 80.82122745 104.78993757 77.98905945 105.12442017 C77.98905945 104.13442017 77.98905945 103.14442017 77.98905945 102.12442017 C76.00905945 102.12442017 74.02905945 102.12442017 71.98905945 102.12442017 C71.98905945 101.13442017 71.98905945 100.14442017 71.98905945 99.12442017 C69.01905945 99.12442017 66.04905945 99.12442017 62.98905945 99.12442017 C62.98905945 98.13442017 62.98905945 97.14442017 62.98905945 96.12442017 C62.13441101 96.07543579 61.27976257 96.02645142 60.3992157 95.97598267 C58.74212585 95.86383423 58.74212585 95.86383423 57.05155945 95.74942017 C55.94941101 95.67981079 54.84726257 95.61020142 53.7117157 95.53848267 C52.81323914 95.40184204 51.91476257 95.26520142 50.98905945 95.12442017 C50.49405945 94.13442017 50.49405945 94.13442017 49.98905945 93.12442017 C45.48671572 93.07497312 40.98453015 93.03867855 36.48197937 93.01455688 C34.95037584 93.00450082 33.4187915 92.99085416 31.88725281 92.97354126 C29.68546309 92.94927518 27.48392726 92.93793329 25.2820282 92.92910767 C24.25531258 92.91362381 24.25531258 92.91362381 23.20785522 92.89782715 C19.55844284 92.89696635 18.11757443 93.03874351 14.98905945 95.12442017 Z M-150.01094055 180.12442017 C-150.01094055 185.40442017 -150.01094055 190.68442017 -150.01094055 196.12442017 C-125.26094055 196.12442017 -100.51094055 196.12442017 -75.01094055 196.12442017 C-75.01094055 190.84442017 -75.01094055 185.56442017 -75.01094055 180.12442017 C-99.76094055 180.12442017 -124.51094055 180.12442017 -150.01094055 180.12442017 Z M-150.01094055 205.12442017 C-150.01094055 208.42442017 -150.01094055 211.72442017 -150.01094055 215.12442017 C-149.02094055 215.61942017 -149.02094055 215.61942017 -148.01094055 216.12442017 C-147.69852685 218.6738339 -147.49790634 221.1280353 -147.38594055 223.68692017 C-147.34726868 224.39783813 -147.3085968 225.1087561 -147.26875305 225.84121704 C-147.17422272 227.60184441 -147.09148239 229.36309744 -147.01094055 231.12442017 C-146.02094055 231.12442017 -145.03094055 231.12442017 -144.01094055 231.12442017 C-144.01094055 234.42442017 -144.01094055 237.72442017 -144.01094055 241.12442017 C-143.35094055 241.45442017 -142.69094055 241.78442017 -142.01094055 242.12442017 C-141.37812805 243.97207642 -141.37812805 243.97207642 -140.88594055 246.18692017 C-140.71836243 246.92039673 -140.5507843 247.65387329 -140.37812805 248.40957642 C-140.25695618 248.97547485 -140.1357843 249.54137329 -140.01094055 250.12442017 C-139.35094055 250.12442017 -138.69094055 250.12442017 -138.01094055 250.12442017 C-137.68094055 253.09442017 -137.35094055 256.06442017 -137.01094055 259.12442017 C-136.02094055 259.12442017 -135.03094055 259.12442017 -134.01094055 259.12442017 C-134.01094055 261.10442017 -134.01094055 263.08442017 -134.01094055 265.12442017 C-133.35094055 265.45442017 -132.69094055 265.78442017 -132.01094055 266.12442017 C-131.67760722 267.79108683 -131.34427389 269.4577535 -131.01094055 271.12442017 C-130.35094055 271.45442017 -129.69094055 271.78442017 -129.01094055 272.12442017 C-128.67760722 273.79108683 -128.34427389 275.4577535 -128.01094055 277.12442017 C-127.35094055 277.45442017 -126.69094055 277.78442017 -126.01094055 278.12442017 C-125.68094055 279.11442017 -125.35094055 280.10442017 -125.01094055 281.12442017 C-124.35094055 281.12442017 -123.69094055 281.12442017 -123.01094055 281.12442017 C-122.68094055 283.10442017 -122.35094055 285.08442017 -122.01094055 287.12442017 C-121.02094055 287.12442017 -120.03094055 287.12442017 -119.01094055 287.12442017 C-118.68094055 288.44442017 -118.35094055 289.76442017 -118.01094055 291.12442017 C-117.35094055 291.12442017 -116.69094055 291.12442017 -116.01094055 291.12442017 C-115.91812805 292.23817017 -115.91812805 292.23817017 -115.82344055 293.37442017 C-114.76569085 296.95449608 -112.94231399 297.92589009 -110.01094055 300.12442017 C-109.68094055 301.11442017 -109.35094055 302.10442017 -109.01094055 303.12442017 C-108.02094055 303.12442017 -107.03094055 303.12442017 -106.01094055 303.12442017 C-106.01094055 304.11442017 -106.01094055 305.10442017 -106.01094055 306.12442017 C-105.39219055 306.74317017 -104.77344055 307.36192017 -104.13594055 307.99942017 C-102.01094055 310.12442017 -102.01094055 310.12442017 -101.19844055 312.62442017 C-99.38309238 316.44620578 -96.78272229 317.30588254 -93.01094055 319.12442017 C-92.35094055 319.12442017 -91.69094055 319.12442017 -91.01094055 319.12442017 C-91.01094055 319.78442017 -91.01094055 320.44442017 -91.01094055 321.12442017 C-89.03803468 323.47311764 -88.00787193 324.12544304 -85.01094055 325.12442017 C-83.34026922 327.12107614 -81.67341069 329.12093051 -80.01094055 331.12442017 C-79.35094055 331.12442017 -78.69094055 331.12442017 -78.01094055 331.12442017 C-78.01094055 332.11442017 -78.01094055 333.10442017 -78.01094055 334.12442017 C-76.03094055 334.12442017 -74.05094055 334.12442017 -72.01094055 334.12442017 C-72.01094055 335.11442017 -72.01094055 336.10442017 -72.01094055 337.12442017 C-71.02094055 337.12442017 -70.03094055 337.12442017 -69.01094055 337.12442017 C-69.01094055 338.11442017 -69.01094055 339.10442017 -69.01094055 340.12442017 C-67.03094055 340.12442017 -65.05094055 340.12442017 -63.01094055 340.12442017 C-62.68094055 341.11442017 -62.35094055 342.10442017 -62.01094055 343.12442017 C-59.76350299 344.27462541 -59.76350299 344.27462541 -57.01094055 345.12442017 C-55.37125305 345.68129517 -55.37125305 345.68129517 -53.69844055 346.24942017 C-52.81156555 346.53817017 -51.92469055 346.82692017 -51.01094055 347.12442017 C-51.01094055 347.78442017 -51.01094055 348.44442017 -51.01094055 349.12442017 C-49.22073446 349.79499904 -47.42872566 350.46076707 -45.63594055 351.12442017 C-44.63820618 351.49567017 -43.6404718 351.86692017 -42.61250305 352.24942017 C-40.15245994 353.23068293 -40.15245994 353.23068293 -38.01094055 353.12442017 C-38.01094055 353.78442017 -38.01094055 354.44442017 -38.01094055 355.12442017 C-35.70094055 355.45442017 -33.39094055 355.78442017 -31.01094055 356.12442017 C-31.01094055 357.11442017 -31.01094055 358.10442017 -31.01094055 359.12442017 C-30.07121399 359.19789673 -30.07121399 359.19789673 -29.11250305 359.27285767 C-28.29523743 359.34762329 -27.4779718 359.42238892 -26.63594055 359.49942017 C-25.82383118 359.56902954 -25.0117218 359.63863892 -24.17500305 359.71035767 C-22.01094055 360.12442017 -22.01094055 360.12442017 -20.01094055 362.12442017 C-17.57081107 362.36729505 -17.57081107 362.36729505 -14.88594055 362.24942017 C-13.97586243 362.23137329 -13.0657843 362.21332642 -12.12812805 362.19473267 C-11.42945618 362.17152954 -10.7307843 362.14832642 -10.01094055 362.12442017 C-9.68094055 363.11442017 -9.35094055 364.10442017 -9.01094055 365.12442017 C-7.43892883 365.19789673 -7.43892883 365.19789673 -5.8351593 365.27285767 C-4.45622702 365.3479016 -3.07732205 365.42344873 -1.69844055 365.49942017 C-0.6630011 365.54582642 -0.6630011 365.54582642 0.39335632 365.59317017 C4.05896734 365.80566936 5.86806736 366.04375878 8.98905945 368.12442017 C15.25905945 368.12442017 21.52905945 368.12442017 27.98905945 368.12442017 C27.98905945 344.36442017 27.98905945 320.60442017 27.98905945 296.12442017 C25.34905945 295.79442017 22.70905945 295.46442017 19.98905945 295.12442017 C19.65905945 294.46442017 19.32905945 293.80442017 18.98905945 293.12442017 C16.4650893 292.8649466 14.01939169 292.70334796 11.48905945 292.62442017 C8.95872721 292.54549237 6.51302959 292.38389373 3.98905945 292.12442017 C3.65905945 291.46442017 3.32905945 290.80442017 2.98905945 290.12442017 C1.12413543 289.73446914 1.12413543 289.73446914 -1.01094055 289.62442017 C-3.19844055 289.46817017 -3.19844055 289.46817017 -5.01094055 289.12442017 C-5.34094055 288.46442017 -5.67094055 287.80442017 -6.01094055 287.12442017 C-8.13670837 286.6579081 -8.13670837 286.6579081 -10.57344055 286.49942017 C-11.39972961 286.42465454 -12.22601868 286.34988892 -13.0773468 286.27285767 C-14.03447571 286.1993811 -14.03447571 286.1993811 -15.01094055 286.12442017 C-15.01094055 285.46442017 -15.01094055 284.80442017 -15.01094055 284.12442017 C-15.81531555 283.83567017 -16.61969055 283.54692017 -17.44844055 283.24942017 C-20.01094055 282.12442017 -20.01094055 282.12442017 -21.01094055 280.12442017 C-22.33094055 280.12442017 -23.65094055 280.12442017 -25.01094055 280.12442017 C-25.01094055 279.13442017 -25.01094055 278.14442017 -25.01094055 277.12442017 C-26.99094055 277.12442017 -28.97094055 277.12442017 -31.01094055 277.12442017 C-31.01094055 276.13442017 -31.01094055 275.14442017 -31.01094055 274.12442017 C-32.00094055 274.12442017 -32.99094055 274.12442017 -34.01094055 274.12442017 C-34.01094055 273.13442017 -34.01094055 272.14442017 -34.01094055 271.12442017 C-35.00094055 271.12442017 -35.99094055 271.12442017 -37.01094055 271.12442017 C-37.01094055 270.13442017 -37.01094055 269.14442017 -37.01094055 268.12442017 C-38.06281555 267.58817017 -39.11469055 267.05192017 -40.19844055 266.49942017 C-44.9526615 263.78961066 -48.24749682 260.41475135 -50.01094055 255.12442017 C-51.00094055 255.12442017 -51.99094055 255.12442017 -53.01094055 255.12442017 C-53.01094055 254.13442017 -53.01094055 253.14442017 -53.01094055 252.12442017 C-54.00094055 252.12442017 -54.99094055 252.12442017 -56.01094055 252.12442017 C-56.01094055 251.13442017 -56.01094055 250.14442017 -56.01094055 249.12442017 C-56.67094055 248.79442017 -57.33094055 248.46442017 -58.01094055 248.12442017 C-58.63594055 245.56192017 -58.63594055 245.56192017 -59.01094055 243.12442017 C-60.00094055 243.12442017 -60.99094055 243.12442017 -62.01094055 243.12442017 C-62.01094055 241.14442017 -62.01094055 239.16442017 -62.01094055 237.12442017 C-63.00094055 237.12442017 -63.99094055 237.12442017 -65.01094055 237.12442017 C-65.01094055 234.81442017 -65.01094055 232.50442017 -65.01094055 230.12442017 C-66.49594055 229.62942017 -66.49594055 229.62942017 -68.01094055 229.12442017 C-68.34094055 227.47442017 -68.67094055 225.82442017 -69.01094055 224.12442017 C-69.67094055 224.12442017 -70.33094055 224.12442017 -71.01094055 224.12442017 C-71.05992493 223.35356079 -71.1089093 222.58270142 -71.15937805 221.78848267 C-71.27152649 220.28414673 -71.27152649 220.28414673 -71.38594055 218.74942017 C-71.49035461 217.2528186 -71.49035461 217.2528186 -71.59687805 215.72598267 C-71.77458019 212.96933137 -71.77458019 212.96933137 -74.01094055 211.12442017 C-74.50594055 208.15442017 -74.50594055 208.15442017 -75.01094055 205.12442017 C-99.76094055 205.12442017 -124.51094055 205.12442017 -150.01094055 205.12442017 Z M100.98905945 273.12442017 C98.86405945 273.74942017 98.86405945 273.74942017 96.98905945 274.12442017 C96.98905945 275.11442017 96.98905945 276.10442017 96.98905945 277.12442017 C95.66905945 277.45442017 94.34905945 277.78442017 92.98905945 278.12442017 C92.98905945 278.78442017 92.98905945 279.44442017 92.98905945 280.12442017 C91.00905945 280.12442017 89.02905945 280.12442017 86.98905945 280.12442017 C86.98905945 281.11442017 86.98905945 282.10442017 86.98905945 283.12442017 C86.01968445 283.24817017 85.05030945 283.37192017 84.05155945 283.49942017 C83.04093445 283.70567017 82.03030945 283.91192017 80.98905945 284.12442017 C80.65905945 284.78442017 80.32905945 285.44442017 79.98905945 286.12442017 C78.00182677 286.82823174 76.00127992 287.49560127 73.98905945 288.12442017 C73.49405945 288.61942017 73.49405945 288.61942017 72.98905945 289.12442017 C70.93028265 289.40395236 68.87177513 289.57176367 66.80155945 289.74551392 C66.20343445 289.87055298 65.60530945 289.99559204 64.98905945 290.12442017 C64.65905945 290.78442017 64.32905945 291.44442017 63.98905945 292.12442017 C61.68477732 292.38077519 59.36814832 292.53034549 57.05155945 292.62442017 C51.96012257 292.52753555 51.96012257 292.52753555 47.98905945 295.12442017 C44.02905945 295.61942017 44.02905945 295.61942017 39.98905945 296.12442017 C39.98905945 319.88442017 39.98905945 343.64442017 39.98905945 368.12442017 C46.58905945 368.12442017 53.18905945 368.12442017 59.98905945 368.12442017 C60.31905945 367.46442017 60.64905945 366.80442017 60.98905945 366.12442017 C63.29334158 365.86806514 65.60997058 365.71849484 67.92655945 365.62442017 C73.01799633 365.72130478 73.01799633 365.72130478 76.98905945 363.12442017 C79.59062195 362.71035767 79.59062195 362.71035767 82.61405945 362.49942017 C84.11839539 362.38727173 84.11839539 362.38727173 85.65312195 362.27285767 C86.42398132 362.22387329 87.1948407 362.17488892 87.98905945 362.12442017 C87.98905945 361.13442017 87.98905945 360.14442017 87.98905945 359.12442017 C90.95905945 359.12442017 93.92905945 359.12442017 96.98905945 359.12442017 C96.98905945 358.13442017 96.98905945 357.14442017 96.98905945 356.12442017 C97.62714539 356.07543579 98.26523132 356.02645142 98.9226532 355.97598267 C99.74894226 355.90121704 100.57523132 355.82645142 101.42655945 355.74942017 C102.25027039 355.67981079 103.07398132 355.61020142 103.9226532 355.53848267 C104.94552429 355.33352173 104.94552429 355.33352173 105.98905945 355.12442017 C106.31905945 354.46442017 106.64905945 353.80442017 106.98905945 353.12442017 C110.05155945 352.49942017 110.05155945 352.49942017 112.98905945 352.12442017 C112.98905945 351.13442017 112.98905945 350.14442017 112.98905945 349.12442017 C114.96905945 349.12442017 116.94905945 349.12442017 118.98905945 349.12442017 C118.98905945 348.13442017 118.98905945 347.14442017 118.98905945 346.12442017 C120.96905945 346.12442017 122.94905945 346.12442017 124.98905945 346.12442017 C124.98905945 345.13442017 124.98905945 344.14442017 124.98905945 343.12442017 C125.71093445 343.02129517 126.43280945 342.91817017 127.17655945 342.81192017 C130.26699366 342.05648069 132.40649786 340.96910701 134.98905945 339.12442017 C134.98905945 338.46442017 134.98905945 337.80442017 134.98905945 337.12442017 C136.96905945 337.12442017 138.94905945 337.12442017 140.98905945 337.12442017 C140.98905945 336.13442017 140.98905945 335.14442017 140.98905945 334.12442017 C141.97905945 334.12442017 142.96905945 334.12442017 143.98905945 334.12442017 C143.98905945 333.13442017 143.98905945 332.14442017 143.98905945 331.12442017 C144.97905945 331.12442017 145.96905945 331.12442017 146.98905945 331.12442017 C146.98905945 330.13442017 146.98905945 329.14442017 146.98905945 328.12442017 C148.96905945 327.79442017 150.94905945 327.46442017 152.98905945 327.12442017 C152.98905945 326.13442017 152.98905945 325.14442017 152.98905945 324.12442017 C153.97905945 324.12442017 154.96905945 324.12442017 155.98905945 324.12442017 C156.86342363 322.38866368 156.86342363 322.38866368 156.98905945 320.12442017 C154.53653757 316.35130959 151.48993523 313.88826947 147.98905945 311.12442017 C147.32905945 310.13442017 146.66905945 309.14442017 145.98905945 308.12442017 C145.32905945 308.12442017 144.66905945 308.12442017 143.98905945 308.12442017 C143.98905945 307.13442017 143.98905945 306.14442017 143.98905945 305.12442017 C142.99905945 305.12442017 142.00905945 305.12442017 140.98905945 305.12442017 C140.98905945 304.13442017 140.98905945 303.14442017 140.98905945 302.12442017 C139.99905945 302.12442017 139.00905945 302.12442017 137.98905945 302.12442017 C137.98905945 301.13442017 137.98905945 300.14442017 137.98905945 299.12442017 C136.50405945 298.62942017 136.50405945 298.62942017 134.98905945 298.12442017 C134.49405945 297.13442017 134.49405945 297.13442017 133.98905945 296.12442017 C132.99905945 296.12442017 132.00905945 296.12442017 130.98905945 296.12442017 C130.98905945 295.13442017 130.98905945 294.14442017 130.98905945 293.12442017 C129.99905945 293.12442017 129.00905945 293.12442017 127.98905945 293.12442017 C127.98905945 292.13442017 127.98905945 291.14442017 127.98905945 290.12442017 C126.99905945 290.12442017 126.00905945 290.12442017 124.98905945 290.12442017 C124.98905945 289.13442017 124.98905945 288.14442017 124.98905945 287.12442017 C123.99905945 287.12442017 123.00905945 287.12442017 121.98905945 287.12442017 C121.98905945 286.13442017 121.98905945 285.14442017 121.98905945 284.12442017 C120.99905945 283.62942017 120.99905945 283.62942017 119.98905945 283.12442017 C119.49405945 281.63942017 119.49405945 281.63942017 118.98905945 280.12442017 C117.99905945 280.12442017 117.00905945 280.12442017 115.98905945 280.12442017 C115.98905945 279.13442017 115.98905945 278.14442017 115.98905945 277.12442017 C114.99905945 277.12442017 114.00905945 277.12442017 112.98905945 277.12442017 C112.98905945 276.13442017 112.98905945 275.14442017 112.98905945 274.12442017 C111.66905945 274.12442017 110.34905945 274.12442017 108.98905945 274.12442017 C108.98905945 273.13442017 108.98905945 272.14442017 108.98905945 271.12442017 C104.49601363 270.69938571 104.49601363 270.69938571 100.98905945 273.12442017 Z " fill="#000000" transform="translate(167.0109405517578,17.875579833984375)"/>
</svg>
